<?xml version="1.0" encoding="UTF-8"?>
<svg width="478px" height="179px" viewBox="0 0 478 179" version="1.1" xmlns="http://www.w3.org/2000/svg" xmlns:xlink="http://www.w3.org/1999/xlink">
    <style type="text/css">
        .st1{fill:#fff;}
    </style>
    <path class="st1" d="M73.0149254,175.089234 C66.8358209,175.358148 66.5671642,175.358148 65.6268657,175.089234 C65.0895522,174.954777 64.6865672,175.089234 64.1492537,175.358148 C62.5373134,176.299345 62,176.837173 62,177.643914 C62,179.122939 62.9402985,179.391853 64.2835821,178.450655 C64.9552239,177.912828 65.0895522,177.912828 72.0746269,177.778371 C79.4626866,177.643914 80,177.643914 80,176.837173 C80,175.089234 79.0597015,174.82032 73.0149254,175.089234 Z"></path>
    <path class="st1" d="M24.52975,174.591109 L19.3723373,174.591109 L17.2007952,173.764501 C15.9793027,173.351197 14.8935316,172.937893 14.7578102,172.937893 C14.4863674,172.937893 10.9576114,170.3203 9.73611896,169.218156 C9.05751203,168.529315 8.92179065,168.529315 9.19323342,167.427171 C9.73611896,164.67181 9.3289548,156.405727 8.65034788,154.890279 L7.97174095,153.512598 L8.10746234,148.690717 C8.24318372,146.073124 8.24318372,141.526778 8.24318372,138.633649 L8.24318372,133.398463 L7.42885541,131.745247 C6.6145271,130.09203 5.80019879,129.678726 4.71442771,130.229798 C3.90009939,130.505334 3.76437801,131.607479 3.76437801,136.153824 C3.90009939,145.65982 3.90009939,145.108747 3.08577108,146.899732 L2.27144277,148.552949 L2.13572139,154.614743 L2,160.676537 L2.67860693,161.916449 C3.49293524,163.29413 3.62865662,164.67181 3.08577108,166.049491 C2.27144277,168.116011 3.49293524,171.560212 6.07164156,174.040037 C7.42885541,175.417718 8.10746234,175.96879 10.6861687,177.34647 C10.9576114,177.484238 11.9076611,177.622006 12.7219894,177.622006 C13.8077605,177.622006 14.6220888,177.759775 15.8435813,178.310847 C17.3365165,178.999687 17.4722379,178.999687 22.4939292,178.999687 L27.6513418,178.999687 L28.7371129,178.173079 C29.6871626,177.484238 29.822884,177.208702 29.9586054,176.519862 C30.0943268,174.591109 30.2300481,174.591109 24.52975,174.591109 Z"></path>
    <path class="st1" d="M49.395047,174.95785 C48.7051066,174.443016 48.4291305,174.443016 44.4274761,174.314308 C42.0816788,174.185599 39.1839291,174.185599 37.9420363,174.056891 C36.7001436,173.928182 35.4582509,174.056891 35.1822747,174.056891 C34.3543462,174.314308 33.6644058,174.829142 33.2504416,175.472684 C32.5605012,176.631061 33.1124535,176.759769 37.2520959,176.888478 C40.0118575,177.017186 41.2537503,177.145895 42.3576549,177.53202 C44.5654642,178.175563 50.3609636,178.175563 50.7749279,177.403312 C51.1888921,176.373644 51.1888921,176.116227 49.395047,174.95785 Z"></path>
    <path class="st1" d="M103.674981,124.476181 L102.979854,123.088312 L102.284726,121.700442 L102.284726,115.87139 C102.284726,108.099321 102.006675,103.519352 101.450573,103.241778 C100.755445,102.825417 99.5042154,102.964204 98.9481133,103.519352 C98.1139601,104.352073 97.8359091,105.323582 97.6968836,106.989025 C97.557858,108.099321 97.4188325,108.793256 97.0017559,109.625977 C96.3066283,110.87506 96.3066283,111.013847 97.1407814,112.956864 C98.1139601,115.038668 98.2529857,115.593816 97.9749346,116.565325 C97.8359091,116.981686 97.6968836,120.590146 97.6968836,125.725264 L97.6968836,134.052481 L96.8627304,136.411859 C95.8895517,139.187598 95.8895517,139.187598 96.5846793,140.43668 C97.4188325,141.82455 97.557858,143.073632 97.0017559,146.543306 C96.5846793,149.735406 96.8627304,151.539636 97.6968836,152.233571 C98.1139601,152.649932 98.1139601,153.899015 97.6968836,155.425671 C97.557858,156.119606 97.279807,157.368688 97.1407814,158.062623 C97.0017559,158.756558 96.7237049,160.00564 96.5846793,160.560788 C96.4456538,161.115936 96.1676028,162.642592 96.1676028,163.891675 C96.0285772,168.332857 94.0822199,170.692236 89.4943775,171.524957 C88.5211988,171.663744 87.4089946,172.080105 86.991918,172.357679 C86.5748414,172.635253 85.7406883,173.051614 85.1845861,173.190401 C82.8211522,173.884335 82.4040756,174.717057 83.7943309,176.521287 C84.7675096,177.631583 92.1358625,176.660074 94.4992964,175.133418 C94.916373,174.855844 95.8895517,174.300696 96.5846793,173.884335 C98.8090878,172.77404 100.199343,171.524957 101.311547,169.720727 L102.284726,168.055283 L102.284726,165.140758 C102.284726,163.614101 102.1457,161.39351 102.1457,160.560788 C102.006675,159.034132 102.006675,158.617771 102.423751,157.507475 C102.840828,156.39718 102.840828,155.980819 102.701803,154.592949 C102.562777,153.066293 102.562777,152.927506 103.118879,151.678423 C103.953032,150.01298 104.092058,148.20875 103.953032,134.746415 L103.674981,124.476181 Z"></path>
    <path class="st1" d="M38.6951804,0.000363260044 C38.8061031,0.000739493661 38.9173751,0.00127141015 39.028838,0.00195576613 L39.698638,0.00786522864 C42.2652621,0.0373314563 44.7651364,0.14400666 45.2693678,0.288428475 C45.6827749,0.42657108 46.6473915,0.42657108 47.612008,0.288428475 C48.5766245,0.288428475 50.5058576,0.15028587 52.0216836,0.288428475 C53.3043056,0.405318372 55.178907,0.423301433 56.5601923,0.426068058 L57.2581735,0.42657108 C62.7870732,0.308644466 66.4079717,0.241052382 68.8495344,0.234536954 L69.6415186,0.234712336 C72.3216687,0.244031365 73.3474397,0.347391782 74.0700618,0.564713686 C75.8614925,0.979141502 80.6845753,0.979141502 81.7869942,0.564713686 C82.3382036,0.288428475 83.0272155,0.15028587 83.5784249,0.15028587 C84.1296344,0.15028587 84.9564486,0.42657108 85.3698556,0.564713686 C85.9210651,0.840998897 86.8856816,0.979141502 87.8502982,0.979141502 C89.6417289,0.979141502 91.570962,1.66985453 92.1221715,2.49871016 C92.2599738,2.77499537 93.086788,3.32756579 93.7757998,3.603851 C95.5672306,4.43270664 96.6696495,5.26156227 97.0830566,6.50484572 C97.3586613,7.05741614 97.7720684,8.02441438 98.1854755,8.43884219 C98.7366849,9.12955522 98.8744873,9.54398304 99.0122896,11.0635517 C99.150092,12.4449777 99.4256967,13.2738334 99.8391038,14.2408316 C100.665918,15.8985429 100.665918,17.1418263 100.114709,18.2469672 C98.7366849,20.8716767 98.4610802,21.4242471 98.3232778,22.2531027 C98.3232778,22.8056732 98.3232778,23.7726714 98.5988826,24.8778122 C99.2878944,27.5025217 99.0122896,34.5477946 98.3232778,35.5147928 C97.634266,36.4817911 97.634266,37.4487893 98.3232778,38.5539302 C98.7366849,39.2446432 98.8744873,39.7972136 98.8744873,40.9023545 L98.8744873,40.9023545 L98.8747564,41.2560751 C98.8766404,42.1758566 98.8917126,43.71701 99.0122896,45.0466326 C99.150092,46.5662013 99.150092,48.5001978 99.0122896,49.467196 C98.8744873,50.848622 98.8744873,51.2630499 99.150092,51.9537629 C100.252511,54.716615 100.665918,57.0650393 100.528116,63.0051713 L100.528116,63.0051713 L100.390313,68.2545903 L101.079325,69.6360164 C102.181744,71.9844407 102.319546,89.3904089 101.35493,93.2584019 C101.079325,94.2254001 100.80372,95.8831114 100.665918,96.9882522 C100.390313,100.165532 99.9769062,100.718103 98.4610802,100.718103 C96.5318471,100.718103 95.5672306,98.7841061 96.5318471,96.8501096 C98.4610802,93.1202593 98.0476731,86.903842 95.8428353,84.4172751 C94.1892069,82.4832787 94.0514046,81.654423 95.4294282,78.2008579 C96.3940447,75.8524336 96.3940447,73.2277241 95.5672306,70.1885868 C95.0160211,67.9783051 94.7404164,67.8401625 94.1892069,69.774159 C93.9136022,70.6030146 93.5001951,71.7081555 93.2245904,71.9844407 C93.1374739,72.0955899 93.0553642,72.2003512 92.9779472,72.3015567 L92.8872793,72.4214778 C92.8577942,72.4610034 92.8290397,72.5001413 92.800996,72.5390728 L92.7189767,72.6554293 C92.6257279,72.7908789 92.5409387,72.9260201 92.4637477,73.0686242 L92.3994248,73.1928651 C91.7014819,74.6046786 91.6770857,76.9035877 91.570962,86.903842 C91.4331596,95.1923984 91.4331596,99.1985339 91.1575549,100.165532 C90.8819502,101.270673 90.8819502,101.823243 91.1575549,103.480955 C91.570962,105.967522 91.570962,110.249942 91.1575549,112.183939 C91.0197526,113.150937 90.8819502,114.117935 91.0197526,114.532363 C91.1368846,114.884627 91.1544544,116.135163 91.1570898,117.520439 L91.1575549,121.163208 L92.1221715,123.097205 L93.086788,125.031201 L92.9489856,129.313622 C92.5355786,138.154749 92.8111833,143.266025 93.5001951,145.061879 C94.602614,147.686588 94.602614,157.494713 93.5001951,160.257565 C93.2245904,161.086421 93.086788,162.053419 93.086788,162.467847 C93.086788,164.678129 92.1221715,166.473983 90.3307407,167.440981 C89.7795313,167.717266 88.9527171,168.269837 88.6771124,168.684264 C87.9881006,169.51312 87.1612864,170.06569 84.9564486,170.480118 C84.1296344,170.618261 83.0272155,171.032689 82.3382036,171.308974 C80.4089705,172.13783 76.5505044,172.13783 74.4834689,171.308974 C72.8298405,170.618261 71.1762122,170.480118 70.2115956,171.032689 C69.0565942,171.656148 64.7510577,171.935064 57.9228318,171.943483 L57.0741571,171.943167 C53.4858338,171.93626 49.2475045,171.859727 44.4425536,171.723402 C40.7115546,171.592166 38.2864053,171.523268 36.1037709,171.516706 L35.4213391,171.516706 C33.2779784,171.523268 31.2652026,171.592166 28.3196771,171.723402 L28.3196771,171.723402 L22.8075825,171.999687 L20.32714,170.756404 C18.6735116,169.927548 17.7088951,169.374977 17.4332904,168.822407 C17.1576856,168.407979 16.4686738,167.717266 15.779662,167.302838 C14.6772431,166.473983 13.9882313,165.506985 11.9211958,162.329705 C11.3699864,161.500849 11.3699864,161.362706 11.5077887,157.356571 L11.5077887,157.356571 L11.5072243,156.189896 C11.504261,154.205151 11.4857403,152.571311 11.3699864,152.107152 C11.1219421,151.236853 11.0134227,144.100406 11.0067566,136.387698 L11.0067702,134.839158 L11.0067702,134.839158 L11.009433,133.285367 C11.0310201,124.8299 11.1674169,116.590688 11.3699864,115.913789 C11.6455911,115.223076 11.7833935,113.979793 11.7833935,113.012794 C11.7833935,111.907654 11.9211958,110.940655 12.1968005,110.388085 C12.6102076,109.559229 12.4724053,108.730374 12.0589982,106.381949 C11.9211958,105.414951 11.9211958,104.586096 12.0589982,103.75724 C12.1968005,102.928384 12.1968005,101.961386 12.0589982,100.994388 C11.7833935,98.9222487 11.6455911,90.3574072 11.9211958,88.1471255 C12.0589982,86.7656994 12.0589982,85.9368438 11.6455911,84.0028473 C11.2798848,82.1698012 11.2376879,81.0934741 11.2328191,78.4787622 L11.232184,77.3720023 C11.3699864,70.6030146 11.3699864,70.464872 9.99196272,70.6030146 C8.88954381,70.7411572 8.200532,71.9844407 8.200532,74.332865 C8.200532,75.714291 8.06272963,76.5431466 7.64932254,77.7864301 C6.96031072,79.7204266 6.96031072,80.6874248 7.64932254,83.0358491 C8.15328547,84.6777726 8.19648229,85.0494608 8.20018488,88.2684558 L8.200532,89.2522663 C8.06272963,92.8439741 8.200532,93.8109723 8.47613672,94.6398279 C9.30295091,96.8501096 9.30295091,97.1263948 9.16514854,102.652099 C9.02734618,108.454088 8.88954381,109.282944 8.06272963,110.66437 C7.5574543,111.424154 7.51534802,111.719626 7.51183917,113.35967 L7.51120958,114.332778 C7.50810359,115.85328 7.47393772,116.252866 7.09811309,116.880787 C6.40910127,118.124071 6.13349654,119.505497 6.40910127,121.301351 C6.96031072,125.445629 3.23964691,124.893059 0.897006723,120.472495 C0.207994905,119.091069 0.207994905,115.913789 1.03480909,114.117935 C1.31041381,113.565365 1.58601854,112.598367 1.72382091,111.907654 C1.86162327,111.355083 2.27503036,110.249942 2.55063509,109.559229 C2.96404218,108.868516 3.23964691,107.763375 3.37744927,106.658235 C3.37744927,105.691236 3.653054,104.586096 3.653054,104.033525 C3.79085636,103.204669 3.653054,102.928384 2.96404218,101.961386 C1.99942563,100.718103 1.44821618,99.3366765 1.58601854,99.0603913 C1.99942563,98.3696783 1.72382091,91.0481202 1.17261145,89.5285515 C0.759204359,88.5615533 0.621401996,87.8708403 0.759204359,87.5945551 C1.44821618,86.3512716 1.72382091,84.831703 1.72382091,82.6214213 C1.72382091,80.4111396 1.72382091,80.272997 2.41283272,79.1678561 C3.23964691,77.6482875 3.23964691,77.5101449 1.99942563,76.405004 C-0.756621641,74.0565797 -0.618819277,69.774159 2.137228,67.1494495 L2.137228,67.1494495 L3.23964691,66.0443086 L3.37744927,62.3144583 C3.37744927,62.1171117 3.37869918,61.9185121 3.38096092,61.7199722 L3.39054354,61.1258442 C3.42494578,59.4504269 3.51525163,57.8741603 3.51525163,57.2031819 C3.51525163,56.3743263 3.653054,55.5454706 3.92865872,54.9929002 C4.47986818,54.025902 4.47986818,54.025902 3.51525163,50.848622 C3.26917598,49.9852308 3.24281073,48.9015866 3.23998589,46.4177634 L3.23964691,45.4610604 C3.37744927,41.0404971 3.23964691,40.6260692 2.137228,40.0734988 C1.86162327,39.9353562 1.31041381,39.3827858 0.897006723,38.968358 L0.897006723,38.968358 L0.207994905,38.1395023 L0.483599632,24.8778122 L1.17261145,23.7726714 C1.72382091,22.8056732 1.86162327,22.5293879 1.72382091,21.4242471 C1.44821618,19.6283932 1.99942563,16.4511133 2.68843745,15.2078299 C3.10184454,14.3789742 3.23964691,13.6882612 3.37744927,12.3068351 C3.51525163,9.95841085 3.79085636,9.40584043 5.30668236,8.30069959 C5.85789181,7.74812917 7.23591545,6.64298832 8.200532,5.67599008 C9.716358,4.15642143 10.2675675,3.88013621 11.9211958,3.18942319 C12.8858124,2.77499537 14.6772431,2.08428234 15.6418596,1.66985453 C17.5710927,0.840998897 18.9491164,0.702856291 20.1893376,1.11728411 C23.6343967,2.36056756 21.5673613,5.9522753 16.7442785,7.05741614 C11.7833935,8.16255698 8.88954381,10.3728387 10.1297651,11.8924073 C10.8187769,12.721263 11.6455911,12.721263 13.0236147,11.8924073 C13.4370218,11.7542647 14.5394407,11.2016943 15.6418596,10.7872665 C17.1576856,10.2346961 17.7088951,9.95841085 18.3979069,9.12955522 L18.3979069,9.12955522 L19.2247211,8.16255698 L29.6414549,8.16207965 C35.7922524,8.157545 35.9644273,8.10993123 36.5878189,7.60998656 C36.6713355,7.55138061 36.7533336,7.49632653 36.8372183,7.44463981 L36.921858,7.39406872 C37.8198261,6.87471449 39.0509288,6.71983117 44.5569763,6.71582185 L45.0944129,6.71588934 C47.4804061,6.71809922 50.6158211,6.74485105 54.7777309,6.78113093 L54.7777309,6.78113093 L55.6477759,6.795168 C61.5891782,6.88768303 67.4105005,6.91123231 70.6501005,6.91722668 L71.1054727,6.91798455 C71.1782012,6.91809197 71.2493224,6.91819043 71.3188006,6.91828069 L71.89878,6.91889161 C71.9580789,6.91893935 72.0156277,6.91898113 72.0713907,6.91901768 L73.7574584,6.91991017 C75.6070882,6.92479106 76.2165986,6.96709213 76.8261091,7.33370135 C77.2395162,7.60998656 78.4797375,8.02441438 79.444354,8.30069959 C81.0979824,8.7151274 81.3735871,8.85327001 82.7516107,10.2346961 C83.5784249,10.9254091 84.6808438,11.8924073 85.0942509,12.1686925 C87.1612864,13.411976 90.3307407,20.042821 90.6063455,23.7726714 C90.7441478,25.29224 91.0197526,26.8118087 91.1575549,27.2262365 C91.4331596,27.7788069 91.4331596,28.46952 91.2953573,30.1272312 C91.0197526,33.0282259 91.0197526,33.8570816 91.4331596,34.9622224 C91.7087644,35.9292207 91.7087644,35.9292207 91.2953573,36.3436485 C90.8819502,36.7580763 90.6063455,37.5869319 90.3307407,38.968358 C90.3307407,39.3827858 90.055136,40.0734988 89.7795313,40.349784 C89.2283218,41.1786397 89.2283218,42.0074953 89.9173336,43.527064 C91.4331596,46.7043439 91.4331596,49.8816238 90.1929384,52.6444759 C89.3661242,54.3021872 89.3661242,54.3021872 89.5039266,58.9990358 C89.6417289,63.0051713 89.9173336,63.8340269 91.9843691,65.215453 L91.9843691,65.215453 L92.1319586,65.3136968 C94.0514865,66.5841413 94.0547656,66.2094059 94.1892069,56.2361837 L94.1892069,56.2361837 L94.3270093,47.8094847 L93.2245904,45.1847752 C91.8465667,41.8693527 91.7087644,40.7642118 92.5355786,39.1065006 C92.9489856,38.1395023 93.086788,37.7250745 92.9489856,37.1725041 C92.5355786,35.100365 92.6733809,27.9169495 93.2245904,26.1210957 C93.9136022,24.0489566 93.9136022,23.6345288 93.3623927,21.7005323 C93.086788,21.0098193 92.9489856,19.7665358 92.9489856,19.2139654 C92.9489856,17.8325394 92.3977762,15.8985429 91.1575549,13.8264038 C90.7441478,12.9975482 90.1929384,11.7542647 90.055136,11.2016943 C89.6417289,9.68212564 88.4015076,8.5769848 86.1966698,7.74812917 C84.9564486,7.33370135 83.991832,6.78113093 83.4406226,6.22856051 C82.6244086,5.41033123 82.4001739,5.2844498 79.8459692,5.09770263 L79.3552432,5.06291023 C79.0101089,5.03904459 78.62814,5.013614 78.2041327,4.98527706 C77.2395162,4.84713445 75.5858878,4.57084924 74.7590736,4.29456403 L74.7590736,4.29456403 L73.1054453,3.74199361 L56.9825687,3.74199361 C50.8062668,3.70469511 46.4482533,3.6774672 43.3579183,3.67390519 L42.0661143,3.67392453 C36.6124917,3.68142153 35.903296,3.79163861 35.5336481,4.1133382 L35.4937496,4.14995842 C35.4872581,4.15620869 35.4808272,4.16253285 35.4744287,4.16893162 L35.4362046,4.2082249 C35.4170638,4.22832465 35.3977122,4.24910821 35.3773945,4.27059422 L35.3352471,4.31450837 L35.3352471,4.31450837 L35.2891806,4.36032889 C35.2649438,4.38372127 35.2387338,4.40784097 35.2097953,4.43270664 L35.2097953,4.43270664 L34.3829811,5.12341966 L30.2489102,4.98527706 C25.7014322,4.84713445 25.0124204,4.70899185 24.5990133,3.4657084 C23.9100015,1.66985453 25.1502227,0.840998897 28.5952818,0.840998897 C29.9733055,0.840998897 31.3513291,0.702856291 31.7647362,0.564713686 C32.0403409,0.42657108 33.1427598,0.288428475 33.969574,0.15028587 C34.7212233,0.0498185203 36.2928535,0.00415154336 38.0351061,-3.36599683e-15 Z M13.4679801,54.999687 C12.4969457,54.999687 11.5259113,55.1372346 10.9710344,55.41233 C10.5548768,55.5498777 10.2774384,55.824973 10.1387192,56.2376161 C10.019817,56.5913101 10.002831,56.9450041 10.0004044,57.2120792 L10,57.4755452 L10,57.4755452 C10,57.6130928 10.1387192,57.7506405 10.1387192,57.8881882 C10.1387192,57.8881882 10.1387192,58.0257359 10.2774384,58.0257359 C10.4161576,58.1632836 10.5548768,58.3008312 10.693596,58.5759266 C11.387192,59.4012127 11.8033497,60.5015941 11.9420689,63.527643 C12.0807881,64.6280244 12.2195073,66.2785966 12.4969457,67.378978 C12.7743841,68.4793594 13.0518225,70.6801223 13.3292609,72.3306944 C13.6066993,73.9812665 14.0228569,76.4571248 14.3002953,77.6950539 C14.9938914,80.5835551 15.6874874,84.5724378 15.9649258,86.4981053 C16.103645,87.1858437 16.5198026,89.6617019 17.0746794,91.8624647 C17.6295563,94.0632276 18.0457139,96.8141811 18.1844331,97.9145626 C18.3231523,99.1524917 18.6005907,100.803064 18.8780291,101.765898 C19.4329059,103.96666 19.9877827,106.992709 20.2652212,109.606115 C20.5426596,111.66933 20.9588172,114.145189 21.9298516,119.784643 C23.5944821,128.450147 23.3170437,130.375815 20.126502,132.163934 C15.9649258,134.502245 15.1326106,137.665842 18.7393099,137.665842 C19.4329059,137.665842 20.4039404,138.766223 20.5426596,139.866604 C20.820098,141.654724 22.20729,143.167749 25.5365509,145.643607 C26.6463046,146.468893 28.8658119,148.532108 30.6691615,150.457776 C36.6340873,156.922517 38.437437,157.610255 45.7895548,156.647421 C50.5060078,155.959683 51.338323,155.409492 51.8931999,151.145514 C52.0319191,150.18268 52.4480767,148.669656 52.7255151,147.706822 C53.0029535,146.743988 53.5578303,144.955869 53.6965495,143.855487 C53.9739879,142.755106 54.3901455,141.242081 54.6675839,140.554343 C54.9450224,139.866604 55.36118,138.35358 55.7773376,137.115651 C56.054776,135.877722 56.748372,133.814507 57.3032488,132.43903 C57.8581257,131.063553 58.4130025,129.275433 58.5517217,128.312599 C58.6904409,127.487313 59.2453177,126.111837 59.6614753,125.149003 C60.9099482,122.810692 62.852017,118.271619 63.4068938,116.896142 C63.6843323,116.208404 64.1004899,115.383118 64.3779283,114.970475 C65.2102435,113.870093 67.1523124,110.431401 67.4297508,109.881211 C67.56847,109.606115 68.5395044,107.955543 69.6492581,106.304971 C71.7300461,103.278922 72.5623614,101.765898 74.0882726,98.8773963 C74.6431494,97.9145626 75.1980263,96.8141811 75.6141839,96.4015381 C75.8916223,95.9888951 76.7239375,94.8885136 77.4175335,93.9256799 C78.1111296,92.9628461 79.2208832,91.0371786 79.9144792,89.5241542 C81.7178289,85.6728192 86.1027429,79.4419094 89.1545655,76.0032174 C89.4749143,75.552061 89.6358533,75.4064683 89.8377232,75.2392528 L89.9999306,75.1046745 C90.146716,74.9806268 90.3290547,74.816181 90.595858,74.5314573 C91.0036925,74.0968066 91.5668924,73.2935282 92.1217692,72.3306944 C95.0348725,68.3418117 94.6187149,66.8287873 90.4571388,65.4533105 C88.0989123,64.7655721 86.7117203,63.527643 85.4632474,61.0517848 C84.3534938,58.8510219 82.8275825,57.7506405 81.3016713,57.7506405 C77.6949719,57.7506405 68.6782236,66.1410489 62.852017,74.9441003 C62.4785422,75.4625492 61.9844064,76.2202823 61.477895,77.0025573 L61.0432373,77.6740805 C60.7548125,78.1190914 60.4724491,78.5520817 60.2163521,78.932983 C58.5517217,81.4088412 56.748372,84.1597947 55.7773376,86.0854622 C55.36118,86.7732006 54.8063032,87.7360344 54.3901455,88.2862251 C53.9739879,88.8364158 53.6965495,89.2490588 53.6965495,89.3866065 C53.6965495,89.5241542 53.2803919,90.2118926 52.7255151,90.899631 C52.1706383,91.5873694 51.7544806,92.2751078 51.7544806,92.2751078 C51.7544806,92.3754804 50.4987121,94.3069753 49.1730678,96.2523274 L48.8778119,96.6841173 C48.4838891,97.2581718 48.0915438,97.8216249 47.7316237,98.3272056 C47.3154661,98.8773963 46.8993085,99.7026824 46.6218701,100.115325 C46.3444317,100.527968 45.928274,101.353255 45.5121164,101.903445 C43.9862052,104.104208 42.8764515,105.892328 42.4602939,106.717614 C41.9054171,107.955543 40.7956635,109.055924 39.824629,109.193472 C38.8535946,109.33102 38.7148754,109.193472 38.2987178,106.029876 C38.1599986,104.654399 37.743841,102.866279 37.4664026,102.178541 C37.0502449,100.803064 36.6340873,99.2900393 35.3856145,92.5502031 C35.3288657,92.2688556 35.2721169,91.9823927 35.2157199,91.6953484 L35.1034991,91.1218283 C34.7874596,89.5022716 34.4902451,87.9611124 34.2758608,87.3233913 C33.9984224,86.4981053 33.720984,84.9850808 33.5822648,83.8846994 C33.4435456,82.784318 33.027388,80.7211028 32.4725112,79.2080783 C32.0563536,77.6950539 31.6401959,75.7693864 31.5014767,74.9441003 C31.3627575,74.1188142 31.0853191,73.0184328 30.9465999,72.4682421 C30.8078807,72.0555991 30.1142847,70.4050269 29.6981271,69.0295501 C29.0045311,67.1038826 28.0334966,65.1782151 26.7850238,63.3900953 C26.3688662,62.7023569 25.8139893,62.0146185 25.2591125,61.3268802 L24.9253194,60.9142371 L24.9253194,60.9142371 L24.2057136,60.088951 C24.0886692,59.9514034 23.9759599,59.8138557 23.8719205,59.676308 C22.6234476,58.4383789 20.9588172,57.2004498 19.9877827,56.9253544 C19.4329059,56.7878068 18.3231523,56.2376161 17.4908371,55.824973 C16.5198026,55.2747823 14.8551722,54.999687 13.4679801,54.999687 Z M10.1297651,20.5953915 C9.16514854,20.4572489 8.75174145,21.1479619 8.75174145,23.220101 C8.75174145,23.7726714 8.47613672,24.8778122 8.200532,25.7066679 C7.78712491,27.0880939 7.64932254,27.5025217 7.78712491,29.0220904 C7.92492727,31.2323721 7.51152018,33.8570816 6.96031072,35.100365 C6.684706,35.6529355 6.54690363,36.7580763 6.40910127,38.4157876 L6.40910127,38.4157876 L6.27129891,40.9023545 L7.64932254,43.527064 L9.02734618,46.1517735 L9.02770379,51.4233119 C9.03888952,56.0389827 9.31156355,57.8622372 9.716358,56.3743263 C9.85416036,55.9598984 10.2675675,55.5454706 10.4053698,54.8547576 L10.4053698,54.8547576 L11.3699864,54.3021872 L11.232184,51.5393351 C11.0993624,49.4089431 11.0305513,43.268024 11.0257505,37.2759293 L11.0257505,35.9319742 C11.0305513,29.9855995 11.0993624,24.5000005 11.232184,23.6345288 C11.3699864,22.5293879 11.3699864,21.7005323 11.232184,21.2861045 C11.0943816,20.7335341 10.9565793,20.5953915 10.1297651,20.5953915 Z M47.3853921,22.5672205 C47.1051591,23.2602219 47.2452756,24.6462248 47.8057416,25.4778265 C47.9458581,25.8936273 48.3662076,26.5866287 48.6464406,27.1410299 C48.9266736,27.695431 49.3470231,28.5270327 49.6272561,29.0814338 C49.9074891,29.635835 50.1877221,30.3288364 50.4679551,30.7446373 C52.8499356,35.0412461 52.5697026,36.011448 48.9266736,37.1202503 C44.7231787,38.3676529 41.2202662,37.3974509 39.5388682,34.6254452 C37.9975867,31.8534395 35.1952567,32.8236415 36.5964217,35.5956472 C37.2970042,37.1202503 37.2970042,39.4764551 36.3161887,41.2782588 C35.1952567,43.4958634 37.2970042,44.8818662 38.8382857,42.9414622 C39.1185187,42.5256614 39.8191012,41.6940597 40.3795672,41.1396586 L41.3603827,40.0308563 L44.1627127,39.892256 C48.3662076,39.7536557 50.0476056,40.0308563 51.1685376,41.2782588 C52.2894696,42.3870611 52.2894696,42.3870611 50.3278386,46.2678691 C49.6272561,47.7924722 48.9266736,49.178475 48.9266736,49.3170753 C48.9266736,49.4556756 48.5063241,50.148677 48.0859746,50.8416784 C46.6848096,53.059283 46.6848096,54.999687 48.2260911,54.999687 C48.9266736,54.999687 49.6272561,54.3066855 51.3086541,51.8118804 C52.5697026,50.0100767 53.1301686,49.3170753 53.8307511,48.6240739 C54.1109841,48.3468733 55.0917996,47.0994708 55.9324986,45.9906685 C59.7156441,40.7238577 59.9958771,40.4466571 64.8999546,40.4466571 C68.8232166,40.4466571 69.6639156,39.7536557 68.5429836,38.0904523 C67.8424011,36.98165 66.8615856,36.7044495 63.6389061,36.7044495 C63.4637605,36.7044495 63.2980728,36.704796 63.1410547,36.7051251 L62.490334,36.7052616 C60.1666441,36.6957869 60.1359936,36.5138741 58.1743626,34.2096444 C56.1037521,31.7302393 55.4740928,31.0115711 55.0327931,30.292903 L54.9406555,30.138261 C54.8504879,29.9823357 54.7648611,29.8206354 54.6714501,29.635835 C54.3912171,29.0814338 53.5505181,28.1112319 52.8499356,27.2796301 C51.4487706,25.755027 50.8883046,24.9234253 49.6272561,23.1216216 C48.6464406,21.7356188 47.6656251,21.7356188 47.3853921,22.5672205 Z"></path>
    <path class="st1" d="M11.65,58.699687 C11.55,58.599687 11.45,58.499687 11.35,58.299687 C11.45,58.399687 11.55,58.499687 11.65,58.699687 Z"></path>
    <path class="st1" d="M10.55,57.649687 C10.55,57.549687 10.45,57.449687 10.45,57.349687 C10.45,57.449687 10.45,57.549687 10.55,57.649687 Z"></path>
    <path class="st1" d="M20,56.999687 C21,57.299687 22.5714286,58.649687 24,59.999687 C22.5714286,58.649687 21.2857143,57.449687 20,56.999687 Z"></path>
    <path class="st1" d="M10.5707107,57.099687 C10.4707107,57.299687 10.4707107,57.599687 10.4707107,57.899687 C10.3707107,57.599687 10.4707107,57.399687 10.5707107,57.099687 Z"></path>
    <path class="st1" d="M25,61.999687 C25.7272727,62.799687 26.4545455,63.4663536 27,63.999687 C26.4545455,63.3330203 25.7272727,62.6663536 25,61.999687 Z"></path>
    <path class="st1" d="M14,55.349687 C12.8947368,55.349687 11.9473684,55.349687 11.3157895,55.549687 C11.1578947,55.549687 11.1578947,55.649687 11,55.649687 C11.9473684,55.349687 12.8947368,55.349687 14,55.349687 Z"></path>
    <path class="st1" d="M145.744501,79.999687 L113,154.999687 L131.037225,154.999687 L138.113367,138.820528 L169.886633,138.820528 L176.962775,154.999687 L195,154.999687 L162.116751,79.999687 L145.744501,79.999687 Z M144.49577,124.012484 L154.069374,102.211753 L163.50423,124.012484 L144.49577,124.012484 Z"></path>
    <path class="st1" d="M318.421438,86.7181513 C312.751637,82.1934712 303.486352,79.999687 290.902158,79.999687 L262,79.999687 L262,154.999687 L280.253995,154.999687 L280.253995,134.021625 L291.178734,134.021625 C303.209776,134.021625 312.336773,131.827841 318.144862,127.577383 C324.091239,123.326926 326.995284,116.471351 326.995284,107.284879 C327.133572,97.9612957 324.229527,91.1057199 318.421438,86.7181513 Z M305.007518,116.197128 C302.794912,118.390912 298.646277,119.624915 292.561612,119.624915 L280.253995,119.624915 L280.253995,94.3963963 L290.625583,94.3963963 C296.57196,94.3963963 300.99717,95.3561769 303.901215,97.1386266 C306.80526,98.9210764 308.188138,102.074641 308.188138,106.325098 C308.188138,110.575555 307.220123,113.866232 305.007518,116.197128 Z"></path>
    <path class="st1" d="M399.027237,104.953983 C399.027237,96.178846 396.402724,89.8717162 390.877432,85.8954822 C385.490272,81.9192482 376.511673,79.999687 363.803502,79.999687 L333,79.999687 L333,154.999687 L351.095331,154.999687 L351.095331,133.884513 L363.66537,133.884513 L381.622568,154.999687 L404,154.999687 L383.418288,131.005171 C393.916342,127.577383 399.027237,117.019797 399.027237,104.953983 Z M377.202335,116.745574 C374.992218,118.665135 370.710117,119.487804 364.494163,119.487804 L351.233463,119.487804 L351.233463,94.5335078 L364.770428,94.5335078 C370.571984,94.5335078 374.715953,95.2190654 376.92607,96.7272921 C379.274319,98.2355188 380.379377,100.977749 380.379377,105.091095 C380.379377,109.20444 379.412451,114.826012 377.202335,116.745574 Z"></path>
    <path class="st1" d="M248.94824,62.143124 C250.612836,62.143124 252,60.7628805 252,59.1065882 C252,57.4502959 250.612836,56.0700523 248.94824,56.0700523 L240.347826,56.0700523 C239.099379,55.932028 237.850932,55.7940036 236.741201,55.3799305 C233.550725,54.5517844 228.973085,54.1377113 226.89234,53.999687 C225.782609,53.999687 211.217391,53.999687 210.10766,53.999687 C208.026915,53.999687 203.449275,54.41376 200.258799,55.3799305 C199.287785,55.6559792 197.900621,55.7940036 196.652174,56.0700523 L188.05176,56.0700523 C186.387164,56.0700523 185,57.4502959 185,59.1065882 C185,60.7628805 186.387164,62.143124 188.05176,62.143124 L188.329193,62.143124 L188.329193,78.4299982 L188.05176,78.4299982 C186.387164,78.4299982 185,79.8102418 185,81.466534 L185,83.5368994 L185,91.8183608 L185,94.8548967 L209.968944,94.9929211 L209.968944,155.999687 L226.89234,155.999687 L226.89234,94.9929211 L251.861284,94.8548967 L251.861284,91.8183608 L251.861284,83.5368994 L251.861284,81.466534 C251.861284,79.8102418 250.47412,78.4299982 248.809524,78.4299982 L248.532091,78.4299982 L248.532091,62.143124 L248.94824,62.143124 Z M205.530021,76.4976572 C205.530021,77.8779008 204.42029,78.8440713 203.171843,78.8440713 L195.26501,78.8440713 C193.877847,78.8440713 192.906832,77.7398764 192.906832,76.4976572 L192.906832,64.4895381 C192.906832,63.1092945 194.016563,62.143124 195.26501,62.143124 L203.171843,62.143124 C204.559006,62.143124 205.530021,63.2473189 205.530021,64.4895381 L205.530021,76.4976572 Z M228.695652,76.4976572 C228.695652,77.8779008 227.585921,78.8440713 226.337474,78.8440713 L210.801242,78.8440713 C209.414079,78.8440713 208.443064,77.7398764 208.443064,76.4976572 L208.443064,64.4895381 C208.443064,63.1092945 209.552795,62.143124 210.801242,62.143124 L226.337474,62.143124 C227.724638,62.143124 228.695652,63.2473189 228.695652,64.4895381 L228.695652,76.4976572 Z M244.3706,76.4976572 C244.3706,77.8779008 243.26087,78.8440713 242.012422,78.8440713 L234.10559,78.8440713 C232.718427,78.8440713 231.747412,77.7398764 231.747412,76.4976572 L231.747412,64.4895381 C231.747412,63.1092945 232.857143,62.143124 234.10559,62.143124 L242.012422,62.143124 C243.399586,62.143124 244.3706,63.2473189 244.3706,64.4895381 L244.3706,76.4976572 Z"></path>
    <path class="st1" d="M212.154675,49.999687 L218.029466,49.999687 L223.904257,49.999687 C224.723996,49.999687 225.270488,49.1923475 224.860619,48.6541212 L221.854912,44.0791977 L218.849205,39.5042741 C218.439336,38.8314912 217.482974,38.8314912 217.073105,39.5042741 L214.067398,44.0791977 L211.061691,48.6541212 C210.788445,49.1923475 211.47156,49.999687 212.154675,49.999687 Z"></path>
    <path class="st1" d="M477.899056,93.5909278 L474.877879,89.9850884 C474.4659,89.4303439 473.504617,89.7077162 472.680659,90.4011468 L471.994028,90.9558913 C465.265042,84.1602709 455.926858,79.999687 445.62739,79.999687 C424.891128,79.999687 408,97.0580811 408,117.999687 C408,138.941293 424.891128,155.999687 445.62739,155.999687 C456.338837,155.999687 465.951673,151.423045 472.817985,144.211366 C474.4659,142.547132 475.839163,140.744213 477.075099,138.802607 L473.092638,135.751512 L466.500978,130.620125 L462.518517,127.56903 C461.69456,129.094577 460.59595,130.481439 459.360014,131.729614 C455.789532,135.335453 450.845787,137.693118 445.490064,137.693118 C434.778617,137.693118 425.989737,128.817205 425.989737,117.999687 C425.989737,107.182169 434.778617,98.3062563 445.490064,98.3062563 C450.571134,98.3062563 455.1029,100.247862 458.536056,103.437643 L452.356376,109.262461 C450.433808,107.736913 448.099262,106.76611 445.352737,106.76611 C439.173057,106.76611 434.229312,111.758811 434.229312,117.999687 C434.229312,124.240563 439.173057,129.233264 445.352737,129.233264 C448.373915,129.233264 451.120439,127.985088 453.180333,126.043483 C454.278943,124.933994 455.1029,123.685818 455.652205,122.298957 C456.20151,121.050782 456.476163,119.525234 456.476163,118.138373 C456.476163,116.196767 455.926858,114.393848 455.1029,112.729614 L461.831886,107.598227 L465.814347,104.547132 L472.406007,99.4157453 L476.251141,96.3646505 L476.937773,95.8099059 C477.899056,94.9777891 478.173709,94.0069862 477.899056,93.5909278 Z M462.381191,99.9704899 C457.986751,95.8099059 452.081723,93.1748694 445.62739,93.1748694 C432.169418,93.1748694 421.183319,104.26976 421.183319,117.861001 C421.183319,131.452242 432.169418,142.547132 445.62739,142.547132 C452.493702,142.547132 458.673383,139.634723 463.205149,135.058081 L469.247503,140.744213 C463.342475,146.985088 454.965574,150.8683 445.62739,150.8683 C427.637652,150.8683 412.943745,136.028884 412.943745,117.861001 C412.943745,99.6931176 427.637652,84.8537016 445.62739,84.8537016 C454.416269,84.8537016 462.518517,88.459541 468.423546,94.2843585 L462.381191,99.9704899 Z"></path>
</svg>