<?xml version="1.0" encoding="utf-8"?>
<svg version="1.1" id="svg" x="0px" y="0px" viewBox="0 0 354.5 129.4" style="enable-background:new 0 0 354.5 129.4;" xmlns="http://www.w3.org/2000/svg">
  <style type="text/css">
	.st1{fill:#AB1615;}
	.st2{fill:#FFFFFF;}
</style>
  <path class="st1" d="M57.1,126.5c-4.6,0.2-4.8,0.2-5.5,0c-0.4-0.1-0.7,0-1.1,0.2c-1.2,0.7-1.6,1.1-1.6,1.7c0,1.1,0.7,1.3,1.7,0.6 c0.5-0.4,0.6-0.4,5.8-0.5c5.5-0.1,5.9-0.1,5.9-0.7C62.3,126.5,61.6,126.3,57.1,126.5z"/>
  <path class="st1" d="M22.2,126.5h-3.8l-1.6-0.6c-0.9-0.3-1.7-0.6-1.8-0.6c-0.2,0-2.8-1.9-3.7-2.7c-0.5-0.5-0.6-0.5-0.4-1.3 c0.4-2,0.1-8-0.4-9.1l-0.5-1l0.1-3.5c0.1-1.9,0.1-5.2,0.1-7.3v-3.8l-0.6-1.2c-0.6-1.2-1.2-1.5-2-1.1c-0.6,0.2-0.7,1-0.7,4.3 c0.1,6.9,0.1,6.5-0.5,7.8l-0.6,1.2L5.7,112l-0.1,4.4l0.5,0.9c0.6,1,0.7,2,0.3,3c-0.6,1.5,0.3,4,2.2,5.8c1,1,1.5,1.4,3.4,2.4 c0.2,0.1,0.9,0.2,1.5,0.2c0.8,0,1.4,0.1,2.3,0.5c1.1,0.5,1.2,0.5,4.9,0.5h3.8l0.8-0.6c0.7-0.5,0.8-0.7,0.9-1.2 C26.3,126.5,26.4,126.5,22.2,126.5z"/>
  <path class="st1" d="M39.7,127c-0.5-0.4-0.7-0.4-3.6-0.5c-1.7-0.1-3.8-0.1-4.7-0.2c-0.9-0.1-1.8,0-2,0c-0.6,0.2-1.1,0.6-1.4,1.1 c-0.5,0.9-0.1,1,2.9,1.1c2,0.1,2.9,0.2,3.7,0.5c1.6,0.5,5.8,0.5,6.1-0.1C41,128.1,41,127.9,39.7,127z"/>
  <path class="st1" d="M79.4,90.6l-0.5-1l-0.5-1v-4.2c0-5.6-0.2-8.9-0.6-9.1c-0.5-0.3-1.4-0.2-1.8,0.2c-0.6,0.6-0.8,1.3-0.9,2.5 c-0.1,0.8-0.2,1.3-0.5,1.9c-0.5,0.9-0.5,1,0.1,2.4c0.7,1.5,0.8,1.9,0.6,2.6c-0.1,0.3-0.2,2.9-0.2,6.6v6l-0.6,1.7 c-0.7,2-0.7,2-0.2,2.9c0.6,1,0.7,1.9,0.3,4.4c-0.3,2.3-0.1,3.6,0.5,4.1c0.3,0.3,0.3,1.2,0,2.3c-0.1,0.5-0.3,1.4-0.4,1.9 s-0.3,1.4-0.4,1.8S74,118.1,74,119c-0.1,3.2-1.5,4.9-4.8,5.5c-0.7,0.1-1.5,0.4-1.8,0.6c-0.3,0.2-0.9,0.5-1.3,0.6 c-1.7,0.5-2,1.1-1,2.4c0.7,0.8,6,0.1,7.7-1c0.3-0.2,1-0.6,1.5-0.9c1.6-0.8,2.6-1.7,3.4-3l0.7-1.2v-2.1c0-1.1-0.1-2.7-0.1-3.3 c-0.1-1.1-0.1-1.4,0.2-2.2c0.3-0.8,0.3-1.1,0.2-2.1c-0.1-1.1-0.1-1.2,0.3-2.1c0.6-1.2,0.7-2.5,0.6-12.2L79.4,90.6z"/>
  <path class="st1" d="M 68.6 122.1 C 68.8 121.8 69.4 121.4 69.8 121.2 C 71.1 120.5 71.8 119.2 71.8 117.6 C 71.8 117.3 71.9 116.6 72.1 116 C 72.9 114 72.9 106.9 72.1 105 C 71.6 103.7 71.4 100 71.7 93.6 L 71.8 90.5 L 71.1 89.1 L 70.4 87.7 L 70.4 85.6 C 70.4 84.4 70.4 83.2 70.3 82.9 C 70.2 82.6 70.3 81.9 70.4 81.2 C 70.7 79.8 70.7 76.7 70.4 74.9 C 70.2 73.7 70.2 73.3 70.4 72.5 C 70.6 71.8 70.6 68.9 70.7 62.9 C 70.8 53.5 70.8 53.5 71.9 52.1 C 72.1 51.9 72.4 51.1 72.6 50.5 C 73 49.1 73.2 49.2 73.6 50.8 C 74.2 53 74.2 54.9 73.5 56.6 C 72.5 59.1 72.6 59.7 73.8 61.1 C 75.4 62.9 75.7 67.4 74.3 70.1 C 73.6 71.5 74.3 72.9 75.7 72.9 C 76.8 72.9 77.1 72.5 77.3 70.2 C 77.4 69.4 77.6 68.2 77.8 67.5 C 78.5 64.7 78.4 52.1 77.6 50.4 L 77.1 49.4 L 77.2 45.6 C 77.3 41.3 77 39.6 76.2 37.6 C 76 37.1 76 36.8 76.1 35.8 C 76.2 35.1 76.2 33.7 76.1 32.6 C 76 31.5 76 30.2 76 29.6 C 76 28.8 75.9 28.4 75.6 27.9 C 75.1 27.1 75.1 26.4 75.6 25.7 C 76.1 25 76.3 19.9 75.8 18 C 75.6 17.2 75.6 16.5 75.6 16.1 C 75.7 15.5 75.9 15.1 76.9 13.2 C 77.3 12.4 77.3 11.5 76.7 10.3 C 76.4 9.6 76.2 9 76.1 8 C 76 6.9 75.9 6.6 75.5 6.1 C 75.2 5.8 74.9 5.1 74.7 4.7 C 74.4 3.8 73.6 3.2 72.3 2.6 C 71.8 2.4 71.2 2 71.1 1.8 C 70.7 1.2 69.3 0.7 68 0.7 C 67.3 0.7 66.6 0.6 66.2 0.4 C 65.9 0.3 65.3 0.1 64.9 0.1 C 64.5 0.1 64 0.2 63.6 0.4 C 62.8 0.7 59.3 0.7 58 0.4 C 57 0.1 55.2 0.1 45.8 0.3 C 44.8 0.3 43.1 0.3 42 0.2 C 40.9 0.1 39.5 0.2 38.8 0.2 C 38.1 0.3 37.4 0.3 37.1 0.2 C 36.4 0 30.4 -0.1 28.9 0.1 C 28.3 0.2 27.5 0.3 27.3 0.4 C 27 0.5 26 0.6 25 0.6 C 22.5 0.6 21.6 1.2 22.1 2.5 C 22.4 3.4 22.9 3.5 26.2 3.6 L 29.2 3.7 L 29.8 3.2 C 30.5 2.6 29 2.6 45.6 2.7 L 57.3 2.7 L 58.5 3.1 C 59.1 3.3 60.3 3.5 61 3.6 C 64 3.8 64.1 3.8 64.8 4.5 C 65.2 4.9 65.9 5.3 66.8 5.6 C 68.4 6.2 69.3 7 69.6 8.1 C 69.7 8.5 70.1 9.4 70.4 10 C 71.3 11.5 71.7 12.9 71.7 13.9 C 71.7 14.3 71.8 15.2 72 15.7 C 72.4 17.1 72.4 17.4 71.9 18.9 C 71.5 20.2 71.4 25.4 71.7 26.9 C 71.8 27.3 71.7 27.6 71.4 28.3 C 70.8 29.5 70.9 30.3 71.9 32.7 L 72.7 34.6 L 72.6 40.7 C 72.5 48.1 72.5 48.2 71 47.2 C 69.5 46.2 69.3 45.6 69.2 42.7 C 69.1 39.3 69.1 39.3 69.7 38.1 C 70.6 36.1 70.6 33.8 69.5 31.5 C 69 30.4 69 29.8 69.4 29.2 C 69.6 29 69.8 28.5 69.8 28.2 C 70 27.2 70.2 26.6 70.5 26.3 C 70.8 26 70.8 26 70.6 25.3 C 70.3 24.5 70.3 23.9 70.5 21.8 C 70.6 20.6 70.6 20.1 70.4 19.7 C 70.3 19.4 70.1 18.3 70 17.2 C 69.8 14.5 67.5 9.7 66 8.8 C 65.7 8.6 64.9 7.9 64.3 7.4 C 63.3 6.4 63.1 6.3 61.9 6 C 61.2 5.8 60.3 5.5 60 5.3 C 59.5 5 59 5 57.2 5 C 56 5 50 5 44 4.9 C 32.5 4.8 31.8 4.8 30.8 5.5 C 30.3 5.9 30.2 5.9 24.2 5.9 L 18.2 5.9 L 17.6 6.6 C 17.1 7.2 16.7 7.4 15.6 7.8 C 14.8 8.1 14 8.5 13.7 8.6 C 12.7 9.2 12.1 9.2 11.6 8.6 C 10.7 7.5 12.8 5.9 16.4 5.1 C 19.9 4.3 21.4 1.7 18.9 0.8 C 18 0.5 17 0.6 15.6 1.2 C 14.9 1.5 13.6 2 12.9 2.3 C 11.7 2.8 11.3 3 10.2 4.1 C 9.5 4.8 8.5 5.6 8.1 6 C 7 6.8 6.8 7.2 6.7 8.9 C 6.6 9.9 6.5 10.4 6.2 11 C 5.7 11.9 5.3 14.2 5.5 15.5 C 5.6 16.3 5.5 16.5 5.1 17.2 L 4.6 18 L 4.5 22.8 L 4.4 27.6 L 4.9 28.2 C 5.2 28.5 5.6 28.9 5.8 29 C 6.6 29.4 6.7 29.7 6.6 32.9 C 6.6 35.2 6.6 36.1 6.8 36.8 C 7.5 39.1 7.5 39.1 7.1 39.8 C 6.9 40.2 6.8 40.8 6.8 41.4 C 6.8 42 6.7 43.6 6.7 45.1 L 6.6 47.8 L 5.8 48.6 C 3.8 50.5 3.7 53.6 5.7 55.3 C 6.6 56.1 6.6 56.2 6 57.3 C 5.5 58.1 5.5 58.2 5.5 59.8 C 5.5 61.4 5.3 62.5 4.8 63.4 C 4.7 63.6 4.8 64.1 5.1 64.8 C 5.5 65.9 5.7 71.2 5.4 71.7 C 5.3 71.9 5.7 72.9 6.4 73.8 C 6.9 74.5 7 74.7 6.9 75.3 C 6.9 75.7 6.7 76.5 6.7 77.2 C 6.6 78 6.4 78.8 6.1 79.3 C 5.9 79.8 5.6 80.6 5.5 81 C 5.4 81.5 5.2 82.2 5 82.6 C 4.4 83.9 4.4 86.2 4.9 87.2 C 6.6 90.4 9.3 90.8 8.9 87.8 C 8.7 86.5 8.9 85.5 9.4 84.6 C 9.7 84.1 9.7 83.8 9.7 82.4 C 9.7 80.9 9.7 80.7 10.1 80.1 C 10.7 79.1 10.8 78.5 10.9 74.3 C 11 70.3 11 70.1 10.4 68.5 C 10.2 67.9 10.1 67.2 10.2 64.6 C 10.2 61.6 10.2 61.4 9.8 60.1 C 9.3 58.4 9.3 57.7 9.8 56.3 C 10.1 55.4 10.2 54.8 10.2 53.8 C 10.2 52.1 10.7 51.2 11.5 51.1 C 12.5 51 12.5 51.1 12.4 56 C 12.4 58.5 12.4 59.3 12.7 60.8 C 13 62.2 13 62.8 12.9 63.8 C 12.7 65.4 12.8 71.6 13 73.1 C 13.1 73.8 13.1 74.5 13 75.1 C 12.9 75.7 12.9 76.3 13 77 C 13.3 78.7 13.4 79.3 13.1 79.9 C 12.9 80.3 12.8 81 12.8 81.8 C 12.8 82.5 12.7 83.4 12.5 83.9 C 12.2 84.9 12.1 108.7 12.5 110.1 C 12.6 110.5 12.6 112.1 12.6 113.9 C 12.5 116.8 12.5 116.9 12.9 117.5 C 14.4 119.8 14.9 120.5 15.7 121.1 C 16.2 121.4 16.7 121.9 16.9 122.2 C 17.1 122.6 17.8 123 19 123.6 L 20.8 124.5 L 24.8 124.3 C 29.3 124.1 30.8 124.1 36.5 124.3 C 47.1 124.6 53.9 124.5 55.2 123.8 C 55.9 123.4 57.1 123.5 58.3 124 C 59.8 124.6 62.6 124.6 64 124 C 64.5 123.8 65.3 123.5 65.9 123.4 C 67.5 123.1 68.1 122.7 68.6 122.1 Z M 11.3 40.8 C 11 41.9 10.8 40.5 10.8 37 L 10.8 33.4 L 9.8 31.5 L 8.8 29.6 L 8.9 27.8 C 9 26.6 9.1 25.8 9.3 25.4 C 9.7 24.5 10 22.6 9.9 21 C 9.8 19.9 9.9 19.6 10.2 18.6 C 10.4 18 10.6 17.2 10.6 16.8 C 10.6 15.3 10.9 14.8 11.6 14.9 C 12.2 14.9 12.3 15 12.4 15.4 C 12.5 15.7 12.5 16.3 12.4 17.1 C 12.2 18.4 12.2 34.1 12.4 37.3 L 12.5 39.3 L 11.8 39.7 C 11.7 40.2 11.4 40.5 11.3 40.8 Z"/>
  <path class="st2" d="M30.4,30.2c-0.8,1.6,0.7,2.6,1.8,1.2c0.2-0.3,0.7-0.9,1.1-1.3l0.7-0.8l2-0.1c3-0.1,4.2,0.1,5,1 c0.8,0.8,0.8,0.8-0.6,3.6c-0.5,1.1-1,2.1-1,2.2s-0.3,0.6-0.6,1.1c-1,1.6-1,3,0.1,3c0.5,0,1-0.5,2.2-2.3c0.9-1.3,1.3-1.8,1.8-2.3 c0.2-0.2,0.9-1.1,1.5-1.9c2.7-3.8,2.9-4,6.4-4c2.8,0,3.4-0.5,2.6-1.7c-0.5-0.8-1.2-1-3.5-1c-2.5,0-2.3,0.1-3.9-1.8 c-1.9-2.3-2.1-2.5-2.5-3.3c-0.2-0.4-0.8-1.1-1.3-1.7c-1-1.1-1.4-1.7-2.3-3c-0.7-1-1.4-1-1.6-0.4c-0.2,0.5-0.1,1.5,0.3,2.1 c0.1,0.3,0.4,0.8,0.6,1.2c0.2,0.4,0.5,1,0.7,1.4s0.4,0.9,0.6,1.2c1.7,3.1,1.5,3.8-1.1,4.6c-3,0.9-5.5,0.2-6.7-1.8 c-1.1-2-3.1-1.3-2.1,0.7C31.1,27.2,31.1,28.9,30.4,30.2z"/>
  <path class="st2" d="M 69.8 54 C 70.094 53.684 70.5 53.1 70.9 52.4 C 73 49.5 72.7 48.4 69.7 47.4 C 68 46.9 67 46 66.1 44.2 C 65.3 42.6 64.2 41.8 63.1 41.8 C 60.5 41.8 54 47.9 49.8 54.3 C 49.3 55 48.5 56.3 47.9 57.2 C 46.7 59 45.4 61 44.7 62.4 C 44.4 62.9 44 63.6 43.7 64 C 43.4 64.4 43.2 64.7 43.2 64.8 C 43.2 64.9 42.9 65.4 42.5 65.9 C 42.1 66.4 41.8 66.9 41.8 66.9 C 41.8 67 40.1 69.6 38.9 71.3 C 38.6 71.7 38.3 72.3 38.1 72.6 C 37.9 72.9 37.6 73.5 37.3 73.9 C 36.2 75.5 35.4 76.8 35.1 77.4 C 34.7 78.3 33.9 79.1 33.2 79.2 C 32.5 79.3 32.4 79.2 32.1 76.9 C 32 75.9 31.7 74.6 31.5 74.1 C 31.2 73.1 30.9 72 30 67.1 C 29.7 65.6 29.4 63.9 29.2 63.3 C 29 62.7 28.8 61.6 28.7 60.8 C 28.6 60 28.3 58.5 27.9 57.4 C 27.6 56.3 27.3 54.9 27.2 54.3 C 27.1 53.7 26.9 52.9 26.8 52.5 C 26.7 52.2 26.2 51 25.9 50 C 25.4 48.6 24.7 47.2 23.8 45.9 C 23.5 45.4 23.1 44.9 22.7 44.4 C 22.4 44 22 43.6 21.7 43.2 C 20.8 42.3 19.6 41.4 18.9 41.2 C 18.5 41.1 17.7 40.7 17.1 40.4 C 16.4 40 15.2 39.8 14.2 39.8 C 13.5 39.8 12.8 39.9 12.4 40.1 C 12.1 40.2 11.9 40.4 11.8 40.7 C 11.7 41 11.7 41.3 11.7 41.5 C 11.7 41.5 11.7 41.5 11.7 41.6 C 11.7 41.7 11.8 41.8 11.8 41.9 C 11.8 41.9 11.8 42 11.9 42 C 12 42.1 12.1 42.2 12.2 42.4 C 12.7 43 13 43.8 13.1 46 C 13.2 46.8 13.3 48 13.5 48.8 C 13.7 49.6 13.9 51.2 14.1 52.4 C 14.3 53.6 14.6 55.4 14.8 56.3 C 15.3 58.4 15.8 61.3 16 62.7 C 16.1 63.2 16.4 65 16.8 66.6 C 17.2 68.2 17.5 70.2 17.6 71 C 17.7 71.9 17.9 73.1 18.1 73.8 C 18.5 75.4 18.9 77.6 19.1 79.5 C 19.3 81 19.6 82.8 20.3 86.9 C 21.5 93.2 21.3 94.6 19 95.9 C 16 97.6 15.4 99.9 18 99.9 C 18.5 99.9 19.2 100.7 19.3 101.5 C 19.5 102.8 20.5 103.9 22.9 105.7 C 23.7 106.3 25.3 107.8 26.6 109.2 C 30.9 113.9 32.2 114.4 37.5 113.7 C 40.9 113.2 41.5 112.8 41.9 109.7 C 42 109 42.3 107.9 42.5 107.2 C 42.7 106.5 43.1 105.2 43.2 104.4 C 43.4 103.6 43.7 102.5 43.9 102 C 44.1 101.5 44.4 100.4 44.7 99.5 C 44.9 98.6 45.4 97.1 45.8 96.1 C 46.2 95.1 46.6 93.8 46.7 93.1 C 46.8 92.5 47.2 91.5 47.5 90.8 C 48.4 89.1 49.8 85.8 50.2 84.8 C 50.4 84.3 50.7 83.7 50.9 83.4 C 51.5 82.6 52.9 80.1 53.1 79.7 C 53.2 79.5 53.9 78.3 54.7 77.1 C 56.2 74.9 56.8 73.8 57.9 71.7 C 58.3 71 58.7 70.2 59 69.9 C 59.2 69.6 59.8 68.8 60.3 68.1 C 60.8 67.4 61.6 66 62.1 64.9 C 63.4 62.1 66.561 57.57 68.761 55.07 C 69.194 54.455 69.223 54.621 69.8 54 Z"/>
  <path class="st2" d="M12.4,42.6c-0.1-0.1-0.2-0.2-0.3-0.4C12.2,42.3,12.3,42.4,12.4,42.6z"/>
  <path class="st2" d="M12.1,42.1c0-0.1-0.1-0.2-0.1-0.3C12,41.9,12,42,12.1,42.1z"/>
  <path class="st2" d="M19.1,41.4c0.7,0.2,1.8,1.1,2.8,2C20.9,42.5,20,41.7,19.1,41.4z"/>
  <path class="st2" d="M12.1,40.9C12,41.1,12,41.4,12,41.7C11.9,41.4,12,41.2,12.1,40.9z"/>
  <path class="st2" d="M22.9,44.6c0.4,0.6,0.8,1.1,1.1,1.5C23.7,45.6,23.3,45.1,22.9,44.6z"/>
  <path class="st2" d="M14.4,40.1c-0.7,0-1.3,0-1.7,0.2c-0.1,0-0.1,0.1-0.2,0.1C13.1,40.1,13.7,40.1,14.4,40.1z"/>
  <path class="st1" d="M109.8,58.1l-23.6,54.7h13l5.1-11.8h22.9l5.1,11.8h13l-23.7-54.7H109.8z M108.9,90.2l6.9-15.9l6.8,15.9H108.9z"/>
  <path class="st1" d="M234.6,63c-4.1-3.3-10.8-4.9-19.9-4.9h-20.9v54.7H207V97.5h7.9c8.7,0,15.3-1.6,19.5-4.7 c4.3-3.1,6.4-8.1,6.4-14.8C240.9,71.2,238.8,66.2,234.6,63z M224.9,84.5c-1.6,1.6-4.6,2.5-9,2.5H207V68.6h7.5c4.3,0,7.5,0.7,9.6,2 s3.1,3.6,3.1,6.7S226.5,82.8,224.9,84.5z"/>
  <path class="st1" d="M293.6,76.2c0-6.4-1.9-11-5.9-13.9c-3.9-2.9-10.4-4.3-19.6-4.3h-22.3v54.7h13.1V97.3h9.1l13,15.4h16.2 l-14.9-17.5C289.9,92.7,293.6,85,293.6,76.2z M277.8,84.8c-1.6,1.4-4.7,2-9.2,2H259V68.6h9.8c4.2,0,7.2,0.5,8.8,1.6 c1.7,1.1,2.5,3.1,2.5,6.1S279.4,83.4,277.8,84.8z"/>
  <path class="st1" d="M 184.6 44.8 C 185.8 44.8 186.8 43.8 186.8 42.6 C 186.8 41.4 185.8 40.4 184.6 40.4 L 178.4 40.4 C 177.5 40.3 176.6 40.2 175.8 39.9 C 173.5 39.3 170.2 39 168.7 38.9 C 167.9 38.9 157.4 38.9 156.6 38.9 C 155.1 38.9 151.8 39.2 149.5 39.9 C 148.8 40.1 147.8 40.2 146.9 40.4 L 140.7 40.4 C 139.5 40.4 138.5 41.4 138.5 42.6 C 138.5 43.8 139.5 44.8 140.7 44.8 L 140.9 44.8 L 140.9 56.6 L 140.7 56.6 C 139.5 56.6 138.5 57.6 138.5 58.8 L 138.5 60.3 L 138.5 66.3 L 138.5 68.5 L 156.5 68.6 L 156.5 112.8 L 168.7 112.8 L 168.7 68.6 L 186.7 68.5 L 186.7 66.3 L 186.7 60.3 L 186.7 58.8 C 186.7 57.6 185.7 56.6 184.5 56.6 L 184.3 56.6 L 184.3 44.8 L 184.6 44.8 Z M 153.3 55.2 C 153.3 56.2 152.5 56.9 151.6 56.9 L 145.9 56.9 C 144.9 56.9 144.2 56.1 144.2 55.2 L 144.2 46.5 C 144.2 45.5 145 44.8 145.9 44.8 L 151.6 44.8 C 152.6 44.8 153.3 45.6 153.3 46.5 L 153.3 55.2 Z M 170 55.2 C 170 56.2 169.2 56.9 168.3 56.9 L 157.1 56.9 C 156.1 56.9 155.4 56.1 155.4 55.2 L 155.4 46.5 C 155.4 45.5 156.2 44.8 157.1 44.8 L 168.3 44.8 C 169.3 44.8 170 45.6 170 46.5 L 170 55.2 Z M 181.3 55.2 C 181.3 56.2 180.5 56.9 179.6 56.9 L 173.9 56.9 C 172.9 56.9 172.2 56.1 172.2 55.2 L 172.2 46.5 C 172.2 45.5 173 44.8 173.9 44.8 L 179.6 44.8 C 180.6 44.8 181.3 45.6 181.3 46.5 L 181.3 55.2 Z"/>
  <path class="st1" d="M158.3,36.2h4.3h4.3c0.6,0,1-0.6,0.7-1l-2.2-3.4l-2.2-3.4c-0.3-0.5-1-0.5-1.3,0l-2.2,3.4l-2.2,3.4 C157.3,35.6,157.8,36.2,158.3,36.2z"/>
  <path class="st1" d="M 350.9 67.9 L 348.7 65.3 C 348.4 64.9 347.7 65.1 347.1 65.6 L 346.6 66 C 341.7 61.1 334.9 58.1 327.4 58.1 C 312.3 58.1 300 70.4 300 85.5 C 300 100.6 312.3 112.9 327.4 112.9 C 335.2 112.9 342.2 109.6 347.2 104.4 C 348.4 103.2 349.4 101.9 350.3 100.5 L 347.4 98.3 L 342.6 94.6 L 339.7 92.4 C 339.1 93.5 338.3 94.5 337.4 95.4 C 334.8 98 331.2 99.7 327.3 99.7 C 319.5 99.7 313.1 93.3 313.1 85.5 C 313.1 77.7 319.5 71.3 327.3 71.3 C 331 71.3 334.3 72.7 336.8 75 L 332.3 79.2 C 330.9 78.1 329.2 77.4 327.2 77.4 C 322.7 77.4 319.1 81 319.1 85.5 C 319.1 90 322.7 93.6 327.2 93.6 C 329.4 93.6 331.4 92.7 332.9 91.3 C 333.7 90.5 334.3 89.6 334.7 88.6 C 335.1 87.7 335.3 86.6 335.3 85.6 C 335.3 84.2 334.9 82.9 334.3 81.7 L 339.2 78 L 342.1 75.8 L 346.9 72.1 L 349.7 69.9 L 350.2 69.5 C 350.9 68.9 351.1 68.2 350.9 67.9 Z M 339.6 72.5 C 336.4 69.5 332.1 67.6 327.4 67.6 C 317.6 67.6 309.6 75.6 309.6 85.4 C 309.6 95.2 317.6 103.2 327.4 103.2 C 332.4 103.2 336.9 101.1 340.2 97.8 L 344.6 101.9 C 340.3 106.4 334.2 109.2 327.4 109.2 C 314.3 109.2 303.6 98.5 303.6 85.4 C 303.6 72.3 314.3 61.6 327.4 61.6 C 333.8 61.6 339.7 64.2 344 68.4 L 339.6 72.5 Z"/>
</svg>