<svg width="1920" height="1080" viewBox="0 0 1920 1080" fill="none" xmlns="http://www.w3.org/2000/svg">
<rect width="1920" height="1080" fill="#F8F9FA"/>
<path d="M1123.13 734.5H1123.13C1135.69 734.486 1147.73 729.491 1156.61 720.611C1165.49 711.731 1170.49 699.691 1170.5 687.133V687.13V488.87V488.867C1170.49 476.309 1165.49 464.269 1156.61 455.389C1147.73 446.509 1135.69 441.514 1123.13 441.5H1123.13H796.87H796.867C784.309 441.514 772.269 446.509 763.389 455.389C754.509 464.269 749.514 476.309 749.5 488.867V488.87L749.5 687.13L749.5 687.133C749.514 699.691 754.509 711.731 763.389 720.611C772.269 729.491 784.309 734.486 796.867 734.5H796.87H1123.13ZM848 382.5H1072C1076.91 382.5 1081.61 380.551 1085.08 377.081C1088.55 373.612 1090.5 368.907 1090.5 364C1090.5 359.093 1088.55 354.388 1085.08 350.919C1081.61 347.449 1076.91 345.5 1072 345.5H848C843.093 345.5 838.388 347.449 834.919 350.919C831.449 354.388 829.5 359.093 829.5 364C829.5 368.907 831.449 373.612 834.919 377.081C838.388 380.551 843.093 382.5 848 382.5ZM816 430.5H1104C1108.91 430.5 1113.61 428.551 1117.08 425.081C1120.55 421.612 1122.5 416.907 1122.5 412C1122.5 407.093 1120.55 402.388 1117.08 398.919C1113.61 395.449 1108.91 393.5 1104 393.5H816C811.093 393.5 806.388 395.449 802.919 398.919C799.449 402.388 797.5 407.093 797.5 412C797.5 416.907 799.449 421.612 802.919 425.081C806.388 428.551 811.093 430.5 816 430.5Z" fill="#E7F5FF" stroke="#A5D8FF" stroke-width="5"/>
<g clip-path="url(#clip0_6_2)">
<path d="M840.1 648.5C835.5 648.7 835.3 648.7 834.6 648.5C834.2 648.4 833.9 648.5 833.5 648.7C832.3 649.4 831.9 649.8 831.9 650.4C831.9 651.5 832.6 651.7 833.6 651C834.1 650.6 834.2 650.6 839.4 650.5C844.9 650.4 845.3 650.4 845.3 649.8C845.3 648.5 844.6 648.3 840.1 648.5Z" fill="#AB1615"/>
<path d="M805.2 648.5H801.4L799.8 647.9C798.9 647.6 798.1 647.3 798 647.3C797.8 647.3 795.2 645.4 794.3 644.6C793.8 644.1 793.7 644.1 793.9 643.3C794.3 641.3 794 635.3 793.5 634.2L793 633.2L793.1 629.7C793.2 627.8 793.2 624.5 793.2 622.4V618.6L792.6 617.4C792 616.2 791.4 615.9 790.6 616.3C790 616.5 789.9 617.3 789.9 620.6C790 627.5 790 627.1 789.4 628.4L788.8 629.6L788.7 634L788.6 638.4L789.1 639.3C789.7 640.3 789.8 641.3 789.4 642.3C788.8 643.8 789.7 646.3 791.6 648.1C792.6 649.1 793.1 649.5 795 650.5C795.2 650.6 795.9 650.7 796.5 650.7C797.3 650.7 797.9 650.8 798.8 651.2C799.9 651.7 800 651.7 803.7 651.7H807.5L808.3 651.1C809 650.6 809.1 650.4 809.2 649.9C809.3 648.5 809.4 648.5 805.2 648.5Z" fill="#AB1615"/>
<path d="M822.7 649C822.2 648.6 822 648.6 819.1 648.5C817.4 648.4 815.3 648.4 814.4 648.3C813.5 648.2 812.6 648.3 812.4 648.3C811.8 648.5 811.3 648.9 811 649.4C810.5 650.3 810.9 650.4 813.9 650.5C815.9 650.6 816.8 650.7 817.6 651C819.2 651.5 823.4 651.5 823.7 650.9C824 650.1 824 649.9 822.7 649Z" fill="#AB1615"/>
<path d="M862.4 612.6L861.9 611.6L861.4 610.6V606.4C861.4 600.8 861.2 597.5 860.8 597.3C860.3 597 859.4 597.1 859 597.5C858.4 598.1 858.2 598.8 858.1 600C858 600.8 857.9 601.3 857.6 601.9C857.1 602.8 857.1 602.9 857.7 604.3C858.4 605.8 858.5 606.2 858.3 606.9C858.2 607.2 858.1 609.8 858.1 613.5V619.5L857.5 621.2C856.8 623.2 856.8 623.2 857.3 624.1C857.9 625.1 858 626 857.6 628.5C857.3 630.8 857.5 632.1 858.1 632.6C858.4 632.9 858.4 633.8 858.1 634.9C858 635.4 857.8 636.3 857.7 636.8C857.6 637.3 857.4 638.2 857.3 638.6C857.2 639 857 640.1 857 641C856.9 644.2 855.5 645.9 852.2 646.5C851.5 646.6 850.7 646.9 850.4 647.1C850.1 647.3 849.5 647.6 849.1 647.7C847.4 648.2 847.1 648.8 848.1 650.1C848.8 650.9 854.1 650.2 855.8 649.1C856.1 648.9 856.8 648.5 857.3 648.2C858.9 647.4 859.9 646.5 860.7 645.2L861.4 644V641.9C861.4 640.8 861.3 639.2 861.3 638.6C861.2 637.5 861.2 637.2 861.5 636.4C861.8 635.6 861.8 635.3 861.7 634.3C861.6 633.2 861.6 633.1 862 632.2C862.6 631 862.7 629.7 862.6 620L862.4 612.6Z" fill="#AB1615"/>
<path d="M851.6 644.1C851.8 643.8 852.4 643.4 852.8 643.2C854.1 642.5 854.8 641.2 854.8 639.6C854.8 639.3 854.9 638.6 855.1 638C855.9 636 855.9 628.9 855.1 627C854.6 625.7 854.4 622 854.7 615.6L854.8 612.5L854.1 611.1L853.4 609.7V607.6C853.4 606.4 853.4 605.2 853.3 604.9C853.2 604.6 853.3 603.9 853.4 603.2C853.7 601.8 853.7 598.7 853.4 596.9C853.2 595.7 853.2 595.3 853.4 594.5C853.6 593.8 853.6 590.9 853.7 584.9C853.8 575.5 853.8 575.5 854.9 574.1C855.1 573.9 855.4 573.1 855.6 572.5C856 571.1 856.2 571.2 856.6 572.8C857.2 575 857.2 576.9 856.5 578.6C855.5 581.1 855.6 581.7 856.8 583.1C858.4 584.9 858.7 589.4 857.3 592.1C856.6 593.5 857.3 594.9 858.7 594.9C859.8 594.9 860.1 594.5 860.3 592.2C860.4 591.4 860.6 590.2 860.8 589.5C861.5 586.7 861.4 574.1 860.6 572.4L860.1 571.4L860.2 567.6C860.3 563.3 860 561.6 859.2 559.6C859 559.1 859 558.8 859.1 557.8C859.2 557.1 859.2 555.7 859.1 554.6C859 553.5 859 552.2 859 551.6C859 550.8 858.9 550.4 858.6 549.9C858.1 549.1 858.1 548.4 858.6 547.7C859.1 547 859.3 541.9 858.8 540C858.6 539.2 858.6 538.5 858.6 538.1C858.7 537.5 858.9 537.1 859.9 535.2C860.3 534.4 860.3 533.5 859.7 532.3C859.4 531.6 859.2 531 859.1 530C859 528.9 858.9 528.6 858.5 528.1C858.2 527.8 857.9 527.1 857.7 526.7C857.4 525.8 856.6 525.2 855.3 524.6C854.8 524.4 854.2 524 854.1 523.8C853.7 523.2 852.3 522.7 851 522.7C850.3 522.7 849.6 522.6 849.2 522.4C848.9 522.3 848.3 522.1 847.9 522.1C847.5 522.1 847 522.2 846.6 522.4C845.8 522.7 842.3 522.7 841 522.4C840 522.1 838.2 522.1 828.8 522.3C827.8 522.3 826.1 522.3 825 522.2C823.9 522.1 822.5 522.2 821.8 522.2C821.1 522.3 820.4 522.3 820.1 522.2C819.4 522 813.4 521.9 811.9 522.1C811.3 522.2 810.5 522.3 810.3 522.4C810 522.5 809 522.6 808 522.6C805.5 522.6 804.6 523.2 805.1 524.5C805.4 525.4 805.9 525.5 809.2 525.6L812.2 525.7L812.8 525.2C813.5 524.6 812 524.6 828.6 524.7H840.3L841.5 525.1C842.1 525.3 843.3 525.5 844 525.6C847 525.8 847.1 525.8 847.8 526.5C848.2 526.9 848.9 527.3 849.8 527.6C851.4 528.2 852.3 529 852.6 530.1C852.7 530.5 853.1 531.4 853.4 532C854.3 533.5 854.7 534.9 854.7 535.9C854.7 536.3 854.8 537.2 855 537.7C855.4 539.1 855.4 539.4 854.9 540.9C854.5 542.2 854.4 547.4 854.7 548.9C854.8 549.3 854.7 549.6 854.4 550.3C853.8 551.5 853.9 552.3 854.9 554.7L855.7 556.6L855.6 562.7C855.5 570.1 855.5 570.2 854 569.2C852.5 568.2 852.3 567.6 852.2 564.7C852.1 561.3 852.1 561.3 852.7 560.1C853.6 558.1 853.6 555.8 852.5 553.5C852 552.4 852 551.8 852.4 551.2C852.6 551 852.8 550.5 852.8 550.2C853 549.2 853.2 548.6 853.5 548.3C853.8 548 853.8 548 853.6 547.3C853.3 546.5 853.3 545.9 853.5 543.8C853.6 542.6 853.6 542.1 853.4 541.7C853.3 541.4 853.1 540.3 853 539.2C852.8 536.5 850.5 531.7 849 530.8C848.7 530.6 847.9 529.9 847.3 529.4C846.3 528.4 846.1 528.3 844.9 528C844.2 527.8 843.3 527.5 843 527.3C842.5 527 842 527 840.2 527C839 527 833 527 827 526.9C815.5 526.8 814.8 526.8 813.8 527.5C813.3 527.9 813.2 527.9 807.2 527.9H801.2L800.6 528.6C800.1 529.2 799.7 529.4 798.6 529.8C797.8 530.1 797 530.5 796.7 530.6C795.7 531.2 795.1 531.2 794.6 530.6C793.7 529.5 795.8 527.9 799.4 527.1C802.9 526.3 804.4 523.7 801.9 522.8C801 522.5 800 522.6 798.6 523.2C797.9 523.5 796.6 524 795.9 524.3C794.7 524.8 794.3 525 793.2 526.1C792.5 526.8 791.5 527.6 791.1 528C790 528.8 789.8 529.2 789.7 530.9C789.6 531.9 789.5 532.4 789.2 533C788.7 533.9 788.3 536.2 788.5 537.5C788.6 538.3 788.5 538.5 788.1 539.2L787.6 540L787.5 544.8L787.4 549.6L787.9 550.2C788.2 550.5 788.6 550.9 788.8 551C789.6 551.4 789.7 551.7 789.6 554.9C789.6 557.2 789.6 558.1 789.8 558.8C790.5 561.1 790.5 561.1 790.1 561.8C789.9 562.2 789.8 562.8 789.8 563.4C789.8 564 789.7 565.6 789.7 567.1L789.6 569.8L788.8 570.6C786.8 572.5 786.7 575.6 788.7 577.3C789.6 578.1 789.6 578.2 789 579.3C788.5 580.1 788.5 580.2 788.5 581.8C788.5 583.4 788.3 584.5 787.8 585.4C787.7 585.6 787.8 586.1 788.1 586.8C788.5 587.9 788.7 593.2 788.4 593.7C788.3 593.9 788.7 594.9 789.4 595.8C789.9 596.5 790 596.7 789.9 597.3C789.9 597.7 789.7 598.5 789.7 599.2C789.6 600 789.4 600.8 789.1 601.3C788.9 601.8 788.6 602.6 788.5 603C788.4 603.5 788.2 604.2 788 604.6C787.4 605.9 787.4 608.2 787.9 609.2C789.6 612.4 792.3 612.8 791.9 609.8C791.7 608.5 791.9 607.5 792.4 606.6C792.7 606.1 792.7 605.8 792.7 604.4C792.7 602.9 792.7 602.7 793.1 602.1C793.7 601.1 793.8 600.5 793.9 596.3C794 592.3 794 592.1 793.4 590.5C793.2 589.9 793.1 589.2 793.2 586.6C793.2 583.6 793.2 583.4 792.8 582.1C792.3 580.4 792.3 579.7 792.8 578.3C793.1 577.4 793.2 576.8 793.2 575.8C793.2 574.1 793.7 573.2 794.5 573.1C795.5 573 795.5 573.1 795.4 578C795.4 580.5 795.4 581.3 795.7 582.8C796 584.2 796 584.8 795.9 585.8C795.7 587.4 795.8 593.6 796 595.1C796.1 595.8 796.1 596.5 796 597.1C795.9 597.7 795.9 598.3 796 599C796.3 600.7 796.4 601.3 796.1 601.9C795.9 602.3 795.8 603 795.8 603.8C795.8 604.5 795.7 605.4 795.5 605.9C795.2 606.9 795.1 630.7 795.5 632.1C795.6 632.5 795.6 634.1 795.6 635.9C795.5 638.8 795.5 638.9 795.9 639.5C797.4 641.8 797.9 642.5 798.7 643.1C799.2 643.4 799.7 643.9 799.9 644.2C800.1 644.6 800.8 645 802 645.6L803.8 646.5L807.8 646.3C812.3 646.1 813.8 646.1 819.5 646.3C830.1 646.6 836.9 646.5 838.2 645.8C838.9 645.4 840.1 645.5 841.3 646C842.8 646.6 845.6 646.6 847 646C847.5 645.8 848.3 645.5 848.9 645.4C850.5 645.1 851.1 644.7 851.6 644.1ZM794.3 562.8C794 563.9 793.8 562.5 793.8 559V555.4L792.8 553.5L791.8 551.6L791.9 549.8C792 548.6 792.1 547.8 792.3 547.4C792.7 546.5 793 544.6 792.9 543C792.8 541.9 792.9 541.6 793.2 540.6C793.4 540 793.6 539.2 793.6 538.8C793.6 537.3 793.9 536.8 794.6 536.9C795.2 536.9 795.3 537 795.4 537.4C795.5 537.7 795.5 538.3 795.4 539.1C795.2 540.4 795.2 556.1 795.4 559.3L795.5 561.3L794.8 561.7C794.7 562.2 794.4 562.5 794.3 562.8Z" fill="#AB1615"/>
<path d="M813.4 552.2C812.6 553.8 814.1 554.8 815.2 553.4C815.4 553.1 815.9 552.5 816.3 552.1L817 551.3L819 551.2C822 551.1 823.2 551.3 824 552.2C824.8 553 824.8 553 823.4 555.8C822.9 556.9 822.4 557.9 822.4 558C822.4 558.1 822.1 558.6 821.8 559.1C820.8 560.7 820.8 562.1 821.9 562.1C822.4 562.1 822.9 561.6 824.1 559.8C825 558.5 825.4 558 825.9 557.5C826.1 557.3 826.8 556.4 827.4 555.6C830.1 551.8 830.3 551.6 833.8 551.6C836.6 551.6 837.2 551.1 836.4 549.9C835.9 549.1 835.2 548.9 832.9 548.9C830.4 548.9 830.6 549 829 547.1C827.1 544.8 826.9 544.6 826.5 543.8C826.3 543.4 825.7 542.7 825.2 542.1C824.2 541 823.8 540.4 822.9 539.1C822.2 538.1 821.5 538.1 821.3 538.7C821.1 539.2 821.2 540.2 821.6 540.8C821.7 541.1 822 541.6 822.2 542C822.4 542.4 822.7 543 822.9 543.4C823.1 543.8 823.3 544.3 823.5 544.6C825.2 547.7 825 548.4 822.4 549.2C819.4 550.1 816.9 549.4 815.7 547.4C814.6 545.4 812.6 546.1 813.6 548.1C814.1 549.2 814.1 550.9 813.4 552.2Z" fill="#F8F9FA"/>
<path d="M852.8 576C853.094 575.684 853.5 575.1 853.9 574.4C856 571.5 855.7 570.4 852.7 569.4C851 568.9 850 568 849.1 566.2C848.3 564.6 847.2 563.8 846.1 563.8C843.5 563.8 837 569.9 832.8 576.3C832.3 577 831.5 578.3 830.9 579.2C829.7 581 828.4 583 827.7 584.4C827.4 584.9 827 585.6 826.7 586C826.4 586.4 826.2 586.7 826.2 586.8C826.2 586.9 825.9 587.4 825.5 587.9C825.1 588.4 824.8 588.9 824.8 588.9C824.8 589 823.1 591.6 821.9 593.3C821.6 593.7 821.3 594.3 821.1 594.6C820.9 594.9 820.6 595.5 820.3 595.9C819.2 597.5 818.4 598.8 818.1 599.4C817.7 600.3 816.9 601.1 816.2 601.2C815.5 601.3 815.4 601.2 815.1 598.9C815 597.9 814.7 596.6 814.5 596.1C814.2 595.1 813.9 594 813 589.1C812.7 587.6 812.4 585.9 812.2 585.3C812 584.7 811.8 583.6 811.7 582.8C811.6 582 811.3 580.5 810.9 579.4C810.6 578.3 810.3 576.9 810.2 576.3C810.1 575.7 809.9 574.9 809.8 574.5C809.7 574.2 809.2 573 808.9 572C808.4 570.6 807.7 569.2 806.8 567.9C806.5 567.4 806.1 566.9 805.7 566.4C805.4 566 805 565.6 804.7 565.2C803.8 564.3 802.6 563.4 801.9 563.2C801.5 563.1 800.7 562.7 800.1 562.4C799.4 562 798.2 561.8 797.2 561.8C796.5 561.8 795.8 561.9 795.4 562.1C795.1 562.2 794.9 562.4 794.8 562.7C794.7 563 794.7 563.3 794.7 563.5C794.7 563.5 794.7 563.5 794.7 563.6C794.7 563.7 794.8 563.8 794.8 563.9C794.8 563.9 794.8 564 794.9 564C795 564.1 795.1 564.2 795.2 564.4C795.7 565 796 565.8 796.1 568C796.2 568.8 796.3 570 796.5 570.8C796.7 571.6 796.9 573.2 797.1 574.4C797.3 575.6 797.6 577.4 797.8 578.3C798.3 580.4 798.8 583.3 799 584.7C799.1 585.2 799.4 587 799.8 588.6C800.2 590.2 800.5 592.2 800.6 593C800.7 593.9 800.9 595.1 801.1 595.8C801.5 597.4 801.9 599.6 802.1 601.5C802.3 603 802.6 604.8 803.3 608.9C804.5 615.2 804.3 616.6 802 617.9C799 619.6 798.4 621.9 801 621.9C801.5 621.9 802.2 622.7 802.3 623.5C802.5 624.8 803.5 625.9 805.9 627.7C806.7 628.3 808.3 629.8 809.6 631.2C813.9 635.9 815.2 636.4 820.5 635.7C823.9 635.2 824.5 634.8 824.9 631.7C825 631 825.3 629.9 825.5 629.2C825.7 628.5 826.1 627.2 826.2 626.4C826.4 625.6 826.7 624.5 826.9 624C827.1 623.5 827.4 622.4 827.7 621.5C827.9 620.6 828.4 619.1 828.8 618.1C829.2 617.1 829.6 615.8 829.7 615.1C829.8 614.5 830.2 613.5 830.5 612.8C831.4 611.1 832.8 607.8 833.2 606.8C833.4 606.3 833.7 605.7 833.9 605.4C834.5 604.6 835.9 602.1 836.1 601.7C836.2 601.5 836.9 600.3 837.7 599.1C839.2 596.9 839.8 595.8 840.9 593.7C841.3 593 841.7 592.2 842 591.9C842.2 591.6 842.8 590.8 843.3 590.1C843.8 589.4 844.6 588 845.1 586.9C846.4 584.1 849.561 579.57 851.761 577.07C852.194 576.455 852.223 576.621 852.8 576Z" fill="#F8F9FA"/>
<path d="M795.4 564.6C795.3 564.5 795.2 564.4 795.1 564.2C795.2 564.3 795.3 564.4 795.4 564.6Z" fill="#F8F9FA"/>
<path d="M795.1 564.1C795.1 564 795 563.9 795 563.8C795 563.9 795 564 795.1 564.1Z" fill="#F8F9FA"/>
<path d="M802.1 563.4C802.8 563.6 803.9 564.5 804.9 565.4C803.9 564.5 803 563.7 802.1 563.4Z" fill="#F8F9FA"/>
<path d="M795.1 562.9C795 563.1 795 563.4 795 563.7C794.9 563.4 795 563.2 795.1 562.9Z" fill="#F8F9FA"/>
<path d="M805.9 566.6C806.3 567.2 806.7 567.7 807 568.1C806.7 567.6 806.3 567.1 805.9 566.6Z" fill="#F8F9FA"/>
<path d="M797.4 562.1C796.7 562.1 796.1 562.1 795.7 562.3C795.6 562.3 795.6 562.4 795.5 562.4C796.1 562.1 796.7 562.1 797.4 562.1Z" fill="#F8F9FA"/>
<path d="M892.8 580.1L869.2 634.8H882.2L887.3 623H910.2L915.3 634.8H928.3L904.6 580.1H892.8ZM891.9 612.2L898.8 596.3L905.6 612.2H891.9Z" fill="#AB1615"/>
<path d="M1017.6 585C1013.5 581.7 1006.8 580.1 997.7 580.1H976.8V634.8H990V619.5H997.9C1006.6 619.5 1013.2 617.9 1017.4 614.8C1021.7 611.7 1023.8 606.7 1023.8 600C1023.9 593.2 1021.8 588.2 1017.6 585ZM1007.9 606.5C1006.3 608.1 1003.3 609 998.9 609H990V590.6H997.5C1001.8 590.6 1005 591.3 1007.1 592.6C1009.2 593.9 1010.2 596.2 1010.2 599.3C1010.2 602.4 1009.5 604.8 1007.9 606.5Z" fill="#AB1615"/>
<path d="M1076.6 598.2C1076.6 591.8 1074.7 587.2 1070.7 584.3C1066.8 581.4 1060.3 580 1051.1 580H1028.8V634.7H1041.9V619.3H1051L1064 634.7H1080.2L1065.3 617.2C1072.9 614.7 1076.6 607 1076.6 598.2ZM1060.8 606.8C1059.2 608.2 1056.1 608.8 1051.6 608.8H1042V590.6H1051.8C1056 590.6 1059 591.1 1060.6 592.2C1062.3 593.3 1063.1 595.3 1063.1 598.3C1063.1 601.3 1062.4 605.4 1060.8 606.8Z" fill="#AB1615"/>
<path d="M967.6 566.8C968.8 566.8 969.8 565.8 969.8 564.6C969.8 563.4 968.8 562.4 967.6 562.4H961.4C960.5 562.3 959.6 562.2 958.8 561.9C956.5 561.3 953.2 561 951.7 560.9C950.9 560.9 940.4 560.9 939.6 560.9C938.1 560.9 934.8 561.2 932.5 561.9C931.8 562.1 930.8 562.2 929.9 562.4H923.7C922.5 562.4 921.5 563.4 921.5 564.6C921.5 565.8 922.5 566.8 923.7 566.8H923.9V578.6H923.7C922.5 578.6 921.5 579.6 921.5 580.8V582.3V588.3V590.5L939.5 590.6V634.8H951.7V590.6L969.7 590.5V588.3V582.3V580.8C969.7 579.6 968.7 578.6 967.5 578.6H967.3V566.8H967.6ZM936.3 577.2C936.3 578.2 935.5 578.9 934.6 578.9H928.9C927.9 578.9 927.2 578.1 927.2 577.2V568.5C927.2 567.5 928 566.8 928.9 566.8H934.6C935.6 566.8 936.3 567.6 936.3 568.5V577.2ZM953 577.2C953 578.2 952.2 578.9 951.3 578.9H940.1C939.1 578.9 938.4 578.1 938.4 577.2V568.5C938.4 567.5 939.2 566.8 940.1 566.8H951.3C952.3 566.8 953 567.6 953 568.5V577.2ZM964.3 577.2C964.3 578.2 963.5 578.9 962.6 578.9H956.9C955.9 578.9 955.2 578.1 955.2 577.2V568.5C955.2 567.5 956 566.8 956.9 566.8H962.6C963.6 566.8 964.3 567.6 964.3 568.5V577.2Z" fill="#AB1615"/>
<path d="M941.3 558.2H945.6H949.9C950.5 558.2 950.9 557.6 950.6 557.2L948.4 553.8L946.2 550.4C945.9 549.9 945.2 549.9 944.9 550.4L942.7 553.8L940.5 557.2C940.3 557.6 940.8 558.2 941.3 558.2Z" fill="#AB1615"/>
<path d="M1133.9 589.9L1131.7 587.3C1131.4 586.9 1130.7 587.1 1130.1 587.6L1129.6 588C1124.7 583.1 1117.9 580.1 1110.4 580.1C1095.3 580.1 1083 592.4 1083 607.5C1083 622.6 1095.3 634.9 1110.4 634.9C1118.2 634.9 1125.2 631.6 1130.2 626.4C1131.4 625.2 1132.4 623.9 1133.3 622.5L1130.4 620.3L1125.6 616.6L1122.7 614.4C1122.1 615.5 1121.3 616.5 1120.4 617.4C1117.8 620 1114.2 621.7 1110.3 621.7C1102.5 621.7 1096.1 615.3 1096.1 607.5C1096.1 599.7 1102.5 593.3 1110.3 593.3C1114 593.3 1117.3 594.7 1119.8 597L1115.3 601.2C1113.9 600.1 1112.2 599.4 1110.2 599.4C1105.7 599.4 1102.1 603 1102.1 607.5C1102.1 612 1105.7 615.6 1110.2 615.6C1112.4 615.6 1114.4 614.7 1115.9 613.3C1116.7 612.5 1117.3 611.6 1117.7 610.6C1118.1 609.7 1118.3 608.6 1118.3 607.6C1118.3 606.2 1117.9 604.9 1117.3 603.7L1122.2 600L1125.1 597.8L1129.9 594.1L1132.7 591.9L1133.2 591.5C1133.9 590.9 1134.1 590.2 1133.9 589.9ZM1122.6 594.5C1119.4 591.5 1115.1 589.6 1110.4 589.6C1100.6 589.6 1092.6 597.6 1092.6 607.4C1092.6 617.2 1100.6 625.2 1110.4 625.2C1115.4 625.2 1119.9 623.1 1123.2 619.8L1127.6 623.9C1123.3 628.4 1117.2 631.2 1110.4 631.2C1097.3 631.2 1086.6 620.5 1086.6 607.4C1086.6 594.3 1097.3 583.6 1110.4 583.6C1116.8 583.6 1122.7 586.2 1127 590.4L1122.6 594.5Z" fill="#AB1615"/>
</g>
<defs>
<clipPath id="clip0_6_2">
<rect width="354.5" height="129.4" fill="white" transform="translate(783 522)"/>
</clipPath>
</defs>
</svg>
