<?xml version="1.0" encoding="utf-8"?>
<svg version="1.1" id="svg" x="0px" y="0px" viewBox="0 0 140 140" style="enable-background:new 0 0 354.5 129.4;" xmlns="http://www.w3.org/2000/svg">
  <style type="text/css">
	.st1{fill:#AB1615;}
	.st2{fill:#FFFFFF;}
</style>
  <path class="st1" d="M 86.345 136.546 C 81.379 136.762 81.162 136.762 80.408 136.546 C 79.976 136.438 79.653 136.546 79.221 136.762 C 77.925 137.517 77.493 137.95 77.493 138.597 C 77.493 139.785 78.248 140 79.328 139.244 C 79.868 138.812 79.976 138.812 85.589 138.704 C 91.525 138.597 91.956 138.597 91.956 137.95 C 91.956 136.546 91.202 136.33 86.345 136.546 Z"/>
  <path class="st1" d="M 48.675 136.546 L 44.574 136.546 L 42.847 135.897 C 41.875 135.575 41.012 135.251 40.904 135.251 C 40.688 135.251 37.882 133.2 36.911 132.337 C 36.371 131.797 36.262 131.797 36.479 130.933 C 36.911 128.774 36.586 122.299 36.047 121.111 L 35.507 120.031 L 35.615 116.255 C 35.723 114.202 35.723 110.642 35.723 108.374 L 35.723 104.274 L 35.076 102.979 C 34.428 101.683 33.78 101.36 32.917 101.791 C 32.269 102.007 32.161 102.871 32.161 106.432 C 32.269 113.88 32.269 113.448 31.622 114.852 L 30.974 116.146 L 30.866 120.895 L 30.758 125.645 L 31.298 126.615 C 31.945 127.694 32.054 128.774 31.622 129.854 C 30.974 131.473 31.945 134.172 33.996 136.114 C 35.076 137.194 35.615 137.625 37.666 138.704 C 37.882 138.812 38.637 138.921 39.285 138.921 C 40.149 138.921 40.796 139.029 41.768 139.46 C 42.954 140 43.062 140 47.056 140 L 51.157 140 L 52.021 139.352 C 52.777 138.812 52.885 138.597 52.992 138.057 C 53.1 136.546 53.209 136.546 48.675 136.546 Z"/>
  <path class="st1" d="M 67.564 137.086 C 67.024 136.654 66.808 136.654 63.678 136.546 C 61.844 136.438 59.577 136.438 58.605 136.33 C 57.634 136.222 56.662 136.33 56.446 136.33 C 55.799 136.546 55.259 136.977 54.935 137.517 C 54.396 138.489 54.827 138.597 58.066 138.704 C 60.224 138.812 61.195 138.921 62.059 139.244 C 63.786 139.785 68.319 139.785 68.643 139.136 C 68.966 138.272 68.966 138.057 67.564 137.086 Z"/>
  <path class="st1" d="M 110.414 97.796 L 109.873 96.718 L 109.334 95.639 L 109.334 91.106 C 109.334 85.062 109.118 81.499 108.685 81.284 C 108.146 80.96 107.176 81.068 106.744 81.499 C 106.096 82.148 105.88 82.903 105.771 84.198 C 105.665 85.062 105.556 85.601 105.232 86.249 C 104.693 87.219 104.693 87.329 105.34 88.84 C 106.096 90.458 106.204 90.89 105.988 91.645 C 105.88 91.968 105.771 94.776 105.771 98.769 L 105.771 105.246 L 105.125 107.08 C 104.369 109.239 104.369 109.239 104.909 110.21 C 105.556 111.288 105.665 112.261 105.232 114.959 C 104.909 117.442 105.125 118.845 105.771 119.384 C 106.096 119.709 106.096 120.68 105.771 121.866 C 105.665 122.405 105.448 123.378 105.34 123.918 C 105.232 124.458 105.016 125.429 104.909 125.86 C 104.801 126.292 104.584 127.48 104.584 128.451 C 104.477 131.904 102.966 133.74 99.404 134.387 C 98.648 134.496 97.785 134.818 97.462 135.035 C 97.138 135.251 96.49 135.575 96.058 135.683 C 94.223 136.222 93.899 136.869 94.979 138.272 C 95.733 139.136 101.455 138.381 103.29 137.194 C 103.613 136.977 104.369 136.546 104.909 136.222 C 106.636 135.357 107.715 134.387 108.579 132.983 L 109.334 131.688 L 109.334 129.422 C 109.334 128.235 109.225 126.508 109.225 125.86 C 109.118 124.673 109.118 124.349 109.442 123.485 C 109.766 122.623 109.766 122.299 109.658 121.22 C 109.55 120.031 109.55 119.924 109.982 118.952 C 110.629 117.657 110.737 116.255 110.629 105.785 L 110.414 97.796 Z"/>
  <path class="st1" d="M 98.756 131.797 C 98.973 131.473 99.62 131.041 100.052 130.826 C 101.455 130.069 102.211 128.666 102.211 126.94 C 102.211 126.615 102.319 125.86 102.534 125.213 C 103.397 123.055 103.397 115.391 102.534 113.341 C 101.994 111.938 101.779 107.943 102.102 101.036 L 102.211 97.69 L 101.455 96.179 L 100.699 94.668 L 100.699 92.401 C 100.699 91.106 100.699 89.811 100.591 89.487 C 100.482 89.163 100.591 88.408 100.699 87.652 C 101.022 86.14 101.022 82.795 100.699 80.851 C 100.482 79.556 100.482 79.125 100.699 78.262 C 100.915 77.506 100.915 74.377 101.022 67.899 C 101.131 57.754 101.131 57.754 102.319 56.242 C 102.534 56.027 102.857 55.164 103.074 54.516 C 103.505 53.005 103.722 53.113 104.154 54.84 C 104.801 57.215 104.801 59.265 104.045 61.1 C 102.966 63.799 103.074 64.445 104.369 65.957 C 106.096 67.899 106.42 72.757 104.909 75.671 C 104.154 77.182 104.909 78.694 106.42 78.694 C 107.607 78.694 107.93 78.262 108.146 75.779 C 108.255 74.916 108.471 73.621 108.685 72.865 C 109.442 69.843 109.334 56.242 108.471 54.407 L 107.93 53.329 L 108.039 49.227 C 108.146 44.587 107.823 42.751 106.959 40.592 C 106.744 40.053 106.744 39.73 106.851 38.65 C 106.959 37.895 106.959 36.384 106.851 35.196 C 106.744 34.009 106.744 32.606 106.744 31.958 C 106.744 31.095 106.636 30.663 106.311 30.124 C 105.771 29.259 105.771 28.504 106.311 27.749 C 106.851 26.993 107.068 21.489 106.528 19.437 C 106.311 18.575 106.311 17.819 106.311 17.387 C 106.42 16.74 106.636 16.308 107.715 14.257 C 108.146 13.394 108.146 12.422 107.5 11.127 C 107.176 10.372 106.959 9.724 106.851 8.644 C 106.744 7.457 106.636 7.134 106.204 6.594 C 105.88 6.27 105.556 5.514 105.34 5.083 C 105.016 4.112 104.154 3.463 102.75 2.816 C 102.211 2.6 101.563 2.169 101.455 1.952 C 101.022 1.305 99.512 0.766 98.108 0.766 C 97.353 0.766 96.598 0.657 96.166 0.442 C 95.842 0.334 95.194 0.117 94.763 0.117 C 94.331 0.117 93.792 0.225 93.36 0.442 C 92.496 0.766 88.718 0.766 87.316 0.442 C 86.236 0.117 84.293 0.117 74.147 0.334 C 73.068 0.334 71.233 0.334 70.045 0.225 C 68.859 0.117 67.348 0.225 66.593 0.225 C 65.837 0.334 65.081 0.334 64.757 0.225 C 64.002 0.01 57.526 -0.098 55.906 0.117 C 55.259 0.225 54.396 0.334 54.179 0.442 C 53.856 0.549 52.777 0.657 51.698 0.657 C 48.999 0.657 48.028 1.305 48.567 2.708 C 48.891 3.68 49.431 3.788 52.992 3.895 L 56.231 4.003 L 56.878 3.463 C 57.634 2.816 56.015 2.816 73.932 2.924 L 86.56 2.924 L 87.856 3.356 C 88.503 3.571 89.798 3.788 90.553 3.895 C 93.792 4.112 93.899 4.112 94.654 4.867 C 95.087 5.298 95.842 5.73 96.813 6.054 C 98.541 6.702 99.512 7.564 99.836 8.752 C 99.943 9.184 100.376 10.155 100.699 10.803 C 101.67 12.422 102.102 13.933 102.102 15.012 C 102.102 15.444 102.211 16.416 102.426 16.955 C 102.857 18.466 102.857 18.79 102.319 20.409 C 101.887 21.812 101.779 27.425 102.102 29.044 C 102.211 29.475 102.102 29.798 101.779 30.556 C 101.131 31.85 101.24 32.714 102.319 35.304 L 103.182 37.355 L 103.074 43.938 C 102.966 51.926 102.966 52.034 101.347 50.954 C 99.728 49.876 99.512 49.227 99.404 46.098 C 99.296 42.428 99.296 42.428 99.943 41.132 C 100.915 38.974 100.915 36.492 99.728 34.009 C 99.188 32.821 99.188 32.173 99.62 31.527 C 99.836 31.31 100.052 30.771 100.052 30.447 C 100.267 29.368 100.482 28.72 100.808 28.396 C 101.131 28.072 101.131 28.072 100.915 27.317 C 100.591 26.454 100.591 25.806 100.808 23.539 C 100.915 22.244 100.915 21.704 100.699 21.272 C 100.591 20.949 100.376 19.762 100.267 18.575 C 100.052 15.661 97.568 10.48 95.951 9.508 C 95.627 9.292 94.763 8.537 94.116 7.997 C 93.036 6.917 92.819 6.809 91.525 6.485 C 90.77 6.27 89.798 5.946 89.474 5.73 C 88.935 5.406 88.395 5.406 86.451 5.406 C 85.157 5.406 78.681 5.406 72.205 5.298 C 59.792 5.191 59.037 5.191 57.958 5.946 C 57.417 6.378 57.31 6.378 50.834 6.378 L 44.358 6.378 L 43.71 7.134 C 43.171 7.781 42.739 7.997 41.551 8.429 C 40.688 8.752 39.825 9.184 39.501 9.292 C 38.422 9.94 37.774 9.94 37.234 9.292 C 36.262 8.105 38.529 6.378 42.415 5.514 C 46.193 4.651 47.811 1.845 45.114 0.873 C 44.142 0.549 43.062 0.657 41.551 1.305 C 40.796 1.628 39.393 2.169 38.637 2.492 C 37.342 3.032 36.911 3.248 35.723 4.435 C 34.968 5.191 33.889 6.054 33.457 6.485 C 32.269 7.349 32.054 7.781 31.945 9.616 C 31.837 10.695 31.73 11.234 31.405 11.883 C 30.866 12.854 30.434 15.336 30.65 16.74 C 30.758 17.603 30.65 17.819 30.219 18.575 L 29.679 19.437 L 29.571 24.618 L 29.463 29.798 L 30.002 30.447 C 30.326 30.771 30.758 31.203 30.974 31.31 C 31.837 31.742 31.945 32.066 31.837 35.52 C 31.837 38.001 31.837 38.974 32.054 39.73 C 32.809 42.212 32.809 42.212 32.377 42.967 C 32.161 43.399 32.054 44.047 32.054 44.694 C 32.054 45.342 31.945 47.069 31.945 48.688 L 31.837 51.602 L 30.974 52.466 C 28.815 54.516 28.708 57.862 30.866 59.696 C 31.837 60.561 31.837 60.668 31.19 61.856 C 30.65 62.719 30.65 62.828 30.65 64.554 C 30.65 66.281 30.434 67.468 29.894 68.438 C 29.787 68.656 29.894 69.196 30.219 69.95 C 30.65 71.138 30.866 76.859 30.543 77.398 C 30.434 77.614 30.866 78.694 31.622 79.665 C 32.161 80.42 32.269 80.637 32.161 81.284 C 32.161 81.716 31.945 82.58 31.945 83.334 C 31.837 84.198 31.622 85.062 31.298 85.601 C 31.082 86.14 30.758 87.005 30.65 87.436 C 30.543 87.976 30.326 88.731 30.111 89.163 C 29.463 90.566 29.463 93.047 30.002 94.128 C 31.837 97.582 34.751 98.014 34.32 94.776 C 34.104 93.372 34.32 92.293 34.859 91.322 C 35.183 90.782 35.183 90.458 35.183 88.947 C 35.183 87.329 35.183 87.112 35.615 86.465 C 36.262 85.385 36.371 84.738 36.479 80.205 C 36.586 75.888 36.586 75.671 35.939 73.945 C 35.723 73.296 35.615 72.542 35.723 69.734 C 35.723 66.497 35.723 66.281 35.291 64.878 C 34.751 63.043 34.751 62.287 35.291 60.776 C 35.615 59.805 35.723 59.156 35.723 58.078 C 35.723 56.242 36.262 55.272 37.126 55.164 C 38.206 55.056 38.206 55.164 38.097 60.453 C 38.097 63.151 38.097 64.014 38.422 65.633 C 38.746 67.145 38.746 67.792 38.637 68.871 C 38.422 70.599 38.529 77.291 38.746 78.909 C 38.853 79.665 38.853 80.42 38.746 81.068 C 38.637 81.716 38.637 82.363 38.746 83.119 C 39.069 84.954 39.178 85.601 38.853 86.249 C 38.637 86.679 38.529 87.436 38.529 88.3 C 38.529 89.054 38.422 90.026 38.206 90.566 C 37.882 91.645 37.774 117.334 38.206 118.845 C 38.314 119.277 38.314 121.003 38.314 122.946 C 38.206 126.076 38.206 126.184 38.637 126.832 C 40.257 129.314 40.796 130.069 41.66 130.718 C 42.199 131.041 42.739 131.581 42.954 131.904 C 43.171 132.337 43.926 132.768 45.221 133.416 L 47.164 134.387 L 51.481 134.172 C 56.338 133.955 57.958 133.955 64.109 134.172 C 75.551 134.496 82.89 134.387 84.293 133.632 C 85.049 133.2 86.345 133.308 87.639 133.848 C 89.259 134.496 92.28 134.496 93.792 133.848 C 94.331 133.632 95.194 133.308 95.842 133.2 C 97.568 132.876 98.217 132.443 98.756 131.797 Z M 36.911 44.047 C 36.586 45.234 36.371 43.723 36.371 39.945 L 36.371 36.06 L 35.291 34.009 L 34.212 31.958 L 34.32 30.015 C 34.428 28.72 34.536 27.857 34.751 27.425 C 35.183 26.454 35.507 24.403 35.4 22.676 C 35.291 21.489 35.4 21.165 35.723 20.086 C 35.939 19.437 36.155 18.575 36.155 18.143 C 36.155 16.523 36.479 15.984 37.234 16.091 C 37.882 16.091 37.99 16.2 38.097 16.632 C 38.206 16.955 38.206 17.603 38.097 18.466 C 37.882 19.869 37.882 36.816 38.097 40.269 L 38.206 42.428 L 37.45 42.859 C 37.342 43.399 37.018 43.723 36.911 44.047 Z"/>
  <path class="st2" d="M 57.526 32.606 C 56.662 34.332 58.281 35.412 59.468 33.9 C 59.684 33.577 60.224 32.929 60.656 32.498 L 61.412 31.635 L 63.57 31.527 C 66.808 31.418 68.104 31.635 68.966 32.606 C 69.83 33.47 69.83 33.47 68.319 36.492 C 67.78 37.678 67.24 38.758 67.24 38.866 C 67.24 38.974 66.916 39.513 66.593 40.053 C 65.513 41.78 65.513 43.29 66.7 43.29 C 67.24 43.29 67.78 42.751 69.075 40.809 C 70.045 39.406 70.478 38.866 71.018 38.327 C 71.233 38.11 71.989 37.139 72.636 36.275 C 75.551 32.173 75.767 31.958 79.544 31.958 C 82.567 31.958 83.214 31.418 82.35 30.124 C 81.811 29.259 81.056 29.044 78.572 29.044 C 75.874 29.044 76.09 29.152 74.364 27.101 C 72.312 24.618 72.097 24.403 71.665 23.539 C 71.45 23.108 70.801 22.352 70.262 21.704 C 69.183 20.518 68.751 19.869 67.78 18.466 C 67.024 17.387 66.269 17.387 66.052 18.034 C 65.837 18.575 65.944 19.654 66.376 20.301 C 66.484 20.625 66.808 21.165 67.024 21.597 C 67.24 22.028 67.564 22.676 67.78 23.108 C 67.995 23.539 68.211 24.079 68.427 24.403 C 70.262 27.749 70.045 28.504 67.24 29.368 C 64.002 30.339 61.304 29.583 60.008 27.425 C 58.821 25.267 56.662 26.022 57.742 28.181 C 58.281 29.368 58.281 31.203 57.526 32.606 Z"/>
  <path class="st2" d="M 100.052 58.294 C 100.369 57.952 100.808 57.321 101.24 56.568 C 103.505 53.437 103.182 52.25 99.943 51.17 C 98.108 50.63 97.029 49.659 96.058 47.716 C 95.194 45.99 94.007 45.126 92.819 45.126 C 90.014 45.126 82.999 51.71 78.465 58.618 C 77.925 59.373 77.062 60.776 76.414 61.748 C 75.119 63.69 73.716 65.85 72.96 67.359 C 72.636 67.899 72.205 68.656 71.88 69.088 C 71.557 69.519 71.341 69.843 71.341 69.95 C 71.341 70.059 71.018 70.599 70.585 71.138 C 70.154 71.678 69.83 72.217 69.83 72.217 C 69.83 72.325 67.995 75.132 66.7 76.967 C 66.376 77.398 66.052 78.046 65.837 78.37 C 65.62 78.694 65.296 79.341 64.973 79.773 C 63.786 81.499 62.923 82.903 62.598 83.551 C 62.167 84.522 61.304 85.385 60.548 85.494 C 59.792 85.601 59.684 85.494 59.36 83.011 C 59.252 81.93 58.929 80.528 58.713 79.988 C 58.389 78.909 58.066 77.723 57.094 72.434 C 56.77 70.813 56.446 68.979 56.231 68.332 C 56.015 67.685 55.799 66.497 55.691 65.633 C 55.583 64.77 55.259 63.151 54.827 61.964 C 54.503 60.776 54.179 59.265 54.071 58.618 C 53.964 57.97 53.748 57.107 53.641 56.675 C 53.532 56.351 52.992 55.056 52.669 53.976 C 52.129 52.466 51.374 50.954 50.402 49.551 C 50.078 49.012 49.646 48.472 49.214 47.933 C 48.891 47.501 48.46 47.069 48.135 46.637 C 47.164 45.665 45.868 44.694 45.114 44.478 C 44.682 44.37 43.818 43.938 43.171 43.615 C 42.415 43.184 41.12 42.967 40.04 42.967 C 39.285 42.967 38.529 43.076 38.097 43.29 C 37.774 43.399 37.558 43.615 37.45 43.938 C 37.342 44.263 37.342 44.587 37.342 44.802 C 37.342 44.802 37.342 44.802 37.342 44.91 C 37.342 45.019 37.45 45.126 37.45 45.234 C 37.45 45.234 37.45 45.342 37.558 45.342 C 37.666 45.449 37.774 45.558 37.882 45.774 C 38.422 46.421 38.746 47.284 38.853 49.659 C 38.961 50.523 39.069 51.818 39.285 52.681 C 39.501 53.545 39.717 55.272 39.932 56.568 C 40.149 57.862 40.472 59.805 40.688 60.776 C 41.228 63.043 41.768 66.174 41.983 67.685 C 42.092 68.224 42.415 70.167 42.847 71.893 C 43.278 73.621 43.603 75.779 43.71 76.641 C 43.818 77.614 44.034 78.909 44.25 79.665 C 44.682 81.391 45.114 83.765 45.329 85.817 C 45.545 87.436 45.868 89.379 46.624 93.804 C 47.92 100.604 47.704 102.115 45.221 103.518 C 41.983 105.353 41.336 107.834 44.142 107.834 C 44.682 107.834 45.438 108.699 45.545 109.563 C 45.761 110.966 46.84 112.153 49.431 114.096 C 50.295 114.742 52.021 116.363 53.424 117.874 C 58.066 122.946 59.468 123.485 65.19 122.73 C 68.859 122.191 69.507 121.759 69.938 118.412 C 70.045 117.657 70.37 116.47 70.585 115.714 C 70.801 114.959 71.233 113.556 71.341 112.692 C 71.557 111.828 71.88 110.642 72.097 110.102 C 72.312 109.563 72.636 108.374 72.96 107.404 C 73.176 106.432 73.716 104.814 74.147 103.735 C 74.579 102.654 75.011 101.25 75.119 100.496 C 75.226 99.849 75.658 98.769 75.982 98.014 C 76.954 96.179 78.465 92.616 78.897 91.537 C 79.113 90.998 79.436 90.351 79.653 90.026 C 80.3 89.163 81.811 86.465 82.027 86.033 C 82.135 85.817 82.89 84.522 83.754 83.227 C 85.373 80.851 86.02 79.665 87.207 77.398 C 87.639 76.641 88.071 75.779 88.395 75.456 C 88.61 75.132 89.259 74.268 89.798 73.513 C 90.338 72.757 91.202 71.246 91.74 70.059 C 93.144 67.036 96.556 62.147 98.931 59.449 C 99.397 58.784 99.429 58.964 100.052 58.294 Z"/>
  <path class="st2" d="M 38.097 45.99 C 37.99 45.881 37.882 45.774 37.774 45.558 C 37.882 45.665 37.99 45.774 38.097 45.99 Z"/>
  <path class="st2" d="M 37.774 45.449 C 37.774 45.342 37.666 45.234 37.666 45.126 C 37.666 45.234 37.666 45.342 37.774 45.449 Z"/>
  <path class="st2" d="M 45.329 44.694 C 46.085 44.91 47.272 45.881 48.351 46.853 C 47.272 45.881 46.3 45.019 45.329 44.694 Z"/>
  <path class="st2" d="M 37.774 44.155 C 37.666 44.37 37.666 44.694 37.666 45.019 C 37.558 44.694 37.666 44.478 37.774 44.155 Z"/>
  <path class="st2" d="M 49.431 48.148 C 49.863 48.795 50.295 49.336 50.618 49.767 C 50.295 49.227 49.863 48.688 49.431 48.148 Z"/>
  <path class="st2" d="M 40.257 43.29 C 39.501 43.29 38.853 43.29 38.422 43.507 C 38.314 43.507 38.314 43.615 38.206 43.615 C 38.853 43.29 39.501 43.29 40.257 43.29 Z"/>
</svg>